{"glyphs":{"0":{"ha":1389,"x_min":310,"x_max":1088,"o":"m 1088 613 q 972 340 1088 454 q 699 226 857 226 q 425 340 540 226 q 310 613 310 454 q 424 886 310 772 q 699 1000 539 1000 q 972 886 857 1000 q 1088 613 1088 772 m 956 -6 q 894 -79 956 -79 q 848 -58 867 -79 q 829 -8 829 -37 q 894 64 829 64 q 956 -6 956 64 m 825 58 q 820 49 824 57 q 811 40 817 40 q 806 42 807 40 q 801 43 806 43 q 772 -6 778 43 q 774 -75 774 -4 l 754 -75 l 754 63 q 776 47 764 60 q 790 64 796 64 q 808 61 797 64 q 825 58 819 58 m 725 -11 l 621 -15 q 619 -22 619 -18 q 664 -60 619 -60 q 699 -32 689 -60 l 721 -32 q 702 -64 722 -49 q 664 -79 682 -79 q 615 -58 635 -79 q 594 -8 594 -37 q 661 64 594 64 q 725 -11 722 64 m 579 -75 l 429 -75 l 429 -53 l 543 90 l 440 90 l 444 114 l 575 114 l 575 89 l 460 -50 l 579 -50 l 579 -75 m 1008 615 q 916 833 1008 740 q 699 925 824 925 q 481 832 574 925 q 389 615 389 739 q 480 396 389 486 q 699 306 571 306 q 917 396 826 306 q 1008 615 1008 486 m 936 -6 q 924 30 936 13 q 894 47 913 47 q 853 -6 853 47 q 894 -60 853 -60 q 936 -6 936 -60 m 701 8 q 663 47 689 47 q 635 35 643 47 q 619 8 626 22 l 701 8 z "},"1":{"ha":1389,"x_min":282,"x_max":1099,"o":"m 1099 596 l 282 596 l 282 678 l 1099 678 l 1099 596 m 940 -11 l 835 -15 q 833 -22 833 -18 q 879 -60 833 -60 q 914 -32 904 -60 l 936 -32 q 916 -64 936 -49 q 879 -79 896 -79 q 829 -58 849 -79 q 810 -8 810 -37 q 875 64 810 64 q 940 -11 936 64 m 785 -75 l 763 -75 q 761 -65 761 -72 q 763 -40 761 -57 q 764 -15 764 -24 q 732 47 764 47 q 692 -32 692 47 q 693 -54 692 -37 q 693 -75 694 -67 l 675 -75 l 675 63 l 693 63 l 693 57 q 696 43 693 50 q 732 64 711 64 q 785 26 785 64 l 785 -75 m 643 19 q 617 -50 643 -21 q 550 -79 590 -79 q 485 -49 511 -79 q 460 19 460 -19 q 551 115 460 115 q 617 87 590 115 q 643 19 643 58 m 917 8 q 876 47 903 47 q 850 35 858 47 q 833 8 842 22 l 917 8 m 619 18 q 599 72 619 49 q 550 96 579 96 q 501 72 519 96 q 483 18 483 49 q 551 -56 483 -56 q 600 -33 581 -56 q 619 18 619 -11 z "},"2":{"ha":1389,"x_min":278,"x_max":1110,"o":"m 1015 838 l 382 838 l 382 919 l 1015 919 l 1015 838 m 1110 310 l 278 310 l 278 392 l 1110 392 l 1110 310 m 936 -6 q 875 -79 936 -79 q 825 -54 843 -79 q 810 -8 810 -33 q 875 64 810 64 q 936 -6 936 64 m 797 63 q 757 -75 783 15 l 735 -75 q 708 24 725 -42 q 678 -75 694 10 l 651 -75 l 615 63 l 633 63 q 664 -43 643 28 q 694 63 685 18 l 718 63 q 744 -40 724 33 q 778 63 756 -6 l 797 63 m 603 92 l 540 92 l 540 -75 l 517 -75 l 517 90 q 457 90 488 93 l 457 114 l 603 114 l 603 92 m 917 -6 q 907 26 917 11 q 875 47 896 47 q 833 -6 833 47 q 875 -60 833 -60 q 917 -6 917 -60 z "},"3":{"ha":1389,"x_min":282,"x_max":1114,"o":"m 1047 869 l 354 869 l 354 956 l 1047 956 l 1047 869 m 992 576 l 406 576 l 406 658 l 992 658 l 992 576 m 1114 263 l 282 263 l 282 344 l 1114 344 l 1114 263 m 1035 -11 l 929 -15 q 929 -22 929 -18 q 974 -60 929 -60 q 1008 -32 999 -60 l 1031 -32 q 1011 -64 1032 -49 q 974 -79 990 -79 q 924 -58 944 -79 q 904 -8 904 -37 q 969 64 904 64 q 1035 -11 1031 64 m 888 -11 l 783 -15 q 782 -22 782 -18 q 828 -60 782 -60 q 861 -32 853 -60 l 885 -32 q 865 -64 885 -49 q 828 -79 844 -79 q 778 -58 797 -79 q 758 -8 758 -37 q 824 64 758 64 q 888 -11 885 64 m 754 58 q 749 49 753 57 q 740 40 746 40 q 735 42 736 40 q 731 43 735 43 q 701 -6 706 43 q 701 -75 701 -4 l 683 -75 l 683 63 q 704 47 693 60 q 719 64 724 64 q 738 61 726 64 q 754 58 749 58 m 646 -75 l 624 -75 q 625 -15 625 -79 q 593 47 625 47 q 556 -3 561 47 q 554 -75 556 -39 l 536 -75 l 536 114 l 558 114 q 556 79 556 97 q 558 47 556 63 q 599 64 574 64 q 646 22 646 64 l 646 -75 m 507 92 l 446 92 l 446 -75 l 421 -75 l 421 90 q 361 90 392 93 l 361 114 l 507 114 l 507 92 m 1011 8 q 972 47 997 47 q 944 35 953 47 q 929 8 936 22 l 1011 8 m 864 8 q 825 47 850 47 q 797 35 806 47 q 782 8 789 22 l 864 8 z "},"4":{"ha":1389,"x_min":308,"x_max":1081,"o":"m 1081 235 l 1004 235 l 1004 293 l 386 293 q 386 226 385 274 l 308 226 l 308 947 l 1081 947 l 1081 235 m 972 58 q 967 49 971 57 q 958 40 964 40 q 953 42 954 40 q 949 43 953 43 q 919 -6 924 43 q 919 -75 919 -4 l 901 -75 l 901 63 q 924 47 911 60 q 938 64 943 64 q 956 61 944 64 q 972 58 967 58 m 863 -75 l 842 -75 l 842 -68 q 839 -60 842 -62 q 797 -79 819 -79 q 771 -69 788 -79 q 754 -49 754 -58 l 754 63 l 774 63 q 772 40 774 56 q 771 17 771 25 q 803 -60 771 -60 q 843 -1 843 -60 q 842 25 843 7 q 840 51 840 43 q 842 63 840 60 l 863 63 l 863 -75 m 722 -6 q 661 -79 722 -79 q 613 -58 632 -79 q 594 -8 594 -37 q 661 64 594 64 q 722 -6 722 64 m 571 90 l 472 90 l 472 33 l 558 33 l 558 13 l 474 13 l 474 -75 l 449 -75 l 449 114 l 571 114 l 571 90 m 1003 631 l 1003 872 l 814 872 l 814 589 q 861 560 814 560 q 911 585 900 560 q 928 647 919 615 q 1003 631 953 642 m 1003 365 l 1003 575 q 906 486 978 486 l 808 486 q 738 529 738 486 l 738 872 l 615 872 q 599 608 615 675 q 428 425 561 461 q 386 483 403 456 l 386 365 l 1003 365 m 539 700 l 539 872 l 386 872 l 386 504 q 491 577 443 515 q 539 700 539 639 m 703 -6 q 691 31 703 14 q 661 47 679 47 q 619 -6 619 47 q 661 -60 619 -60 q 703 -6 703 -60 z "},"5":{"ha":1389,"x_min":278,"x_max":1114,"o":"m 1114 250 l 278 250 l 278 333 l 521 333 q 575 618 578 607 l 378 618 l 378 701 l 585 701 q 611 892 611 850 l 322 892 l 322 978 l 1067 978 l 1067 893 l 697 893 q 669 704 685 825 l 943 704 q 949 583 950 654 q 944 463 944 461 l 944 335 l 1114 335 l 1114 250 m 940 -11 l 835 -15 q 833 -22 833 -18 q 879 -60 833 -60 q 914 -32 904 -60 l 936 -32 q 916 -64 936 -49 q 879 -79 896 -79 q 829 -58 849 -79 q 810 -8 810 -37 q 875 64 810 64 q 940 -11 936 64 m 650 88 l 632 88 l 632 114 l 650 114 l 650 88 m 797 63 l 749 -75 l 722 -75 l 675 63 l 697 63 q 736 -43 708 26 q 779 63 750 -8 l 797 63 m 650 -75 l 632 -75 l 632 63 l 650 63 l 650 -75 m 594 90 l 496 90 l 496 33 l 582 33 l 582 13 l 497 13 l 497 -75 l 472 -75 l 472 114 l 594 114 l 594 90 m 865 544 q 858 618 865 593 l 664 618 l 611 338 l 858 338 l 858 357 q 861 453 857 390 q 865 544 865 515 m 917 8 q 876 47 903 47 q 850 35 858 47 q 833 8 842 22 l 917 8 z "},"6":{"ha":1389,"x_min":254,"x_max":1143,"o":"m 1122 754 l 286 754 l 286 836 l 654 836 l 654 1019 l 761 1015 q 746 989 761 1001 l 746 839 l 1122 839 l 1122 754 m 1143 308 l 1093 214 q 897 403 983 285 q 774 646 815 515 l 851 674 q 969 468 894 567 q 1143 308 1050 364 m 626 638 q 497 394 563 515 q 307 199 418 263 q 254 281 281 243 q 533 678 443 406 q 626 638 564 665 m 729 88 l 711 88 l 711 114 l 729 114 l 729 88 m 876 -74 q 865 -78 871 -78 q 840 -57 854 -78 q 819 -28 819 -29 q 781 -75 810 -35 l 754 -75 l 801 -4 q 758 63 788 14 l 781 63 q 815 15 792 47 q 850 63 826 32 l 872 63 q 829 -6 856 33 q 876 -74 851 -33 m 729 -75 l 711 -75 l 711 63 l 729 63 l 729 -75 m 678 -22 q 656 -63 678 -47 q 607 -79 633 -79 q 553 -60 578 -79 q 528 -12 529 -42 l 551 -12 q 568 -44 550 -32 q 607 -56 586 -56 q 654 -24 654 -56 q 595 15 654 -4 q 536 64 536 33 q 603 115 536 115 q 674 60 665 115 l 651 60 q 632 84 647 72 q 603 96 617 96 q 560 65 560 96 q 619 32 560 47 q 678 -22 678 17 z "},"7":{"ha":1389,"x_min":271,"x_max":1113,"o":"m 1113 813 q 1113 726 1108 790 l 658 660 l 658 331 l 678 310 l 946 310 q 990 363 968 310 q 1008 436 1010 410 l 1099 400 q 1060 292 1085 340 q 982 222 1022 222 l 642 222 q 595 246 619 222 q 571 292 571 269 l 571 647 l 569 647 q 421 633 517 651 q 271 615 317 615 q 271 701 274 651 l 571 742 l 571 1015 l 672 1010 q 658 981 658 981 l 658 757 q 892 793 775 775 q 1113 813 1065 819 m 1056 -75 l 1032 -75 q 1032 -65 1032 -72 q 1032 -40 1032 -57 q 1033 -15 1033 -24 q 1001 47 1033 47 q 961 -32 961 47 q 963 -52 961 -37 q 964 -75 964 -67 l 944 -75 l 944 63 l 964 63 l 964 57 q 967 43 963 50 q 1001 64 982 64 q 1056 26 1056 64 l 1056 -75 m 915 -11 l 811 -15 q 810 -22 810 -18 q 856 -60 810 -60 q 889 -32 881 -60 l 913 -32 q 892 -64 913 -49 q 856 -79 872 -79 q 806 -58 825 -79 q 786 -8 786 -37 q 851 64 786 64 q 915 -11 913 64 m 774 63 l 725 -75 l 699 -75 l 651 63 l 674 63 q 713 -43 685 26 q 754 63 725 -8 l 774 63 m 639 -11 l 533 -15 q 532 -22 532 -18 q 578 -60 532 -60 q 611 -32 603 -60 l 635 -32 q 615 -64 635 -49 q 578 -79 594 -79 q 528 -58 547 -79 q 508 -8 508 -37 q 574 64 508 64 q 639 -11 635 64 m 483 -22 q 461 -63 483 -47 q 413 -79 439 -79 q 359 -60 383 -79 q 333 -12 335 -42 l 357 -12 q 374 -44 356 -32 q 413 -56 392 -56 q 460 -24 460 -56 q 401 15 460 1 q 342 64 342 28 q 408 115 342 115 q 479 60 471 115 l 457 60 q 408 96 443 96 q 365 65 365 96 q 395 36 365 42 q 453 25 425 31 q 483 -22 483 14 m 892 8 q 853 47 879 47 q 825 35 833 47 q 810 8 817 22 l 892 8 m 614 8 q 575 47 600 47 q 547 35 556 47 q 532 8 539 22 l 614 8 z "},"8":{"ha":1389,"x_min":258,"x_max":1146,"o":"m 1146 315 l 1097 214 q 849 554 940 310 q 769 979 769 764 l 844 992 q 917 618 869 742 q 1146 315 983 444 m 625 958 l 608 938 q 531 544 567 653 q 315 206 467 354 q 258 296 289 240 q 456 615 396 433 q 529 983 489 718 q 625 958 579 969 m 996 -75 q 988 -77 993 -75 q 978 -79 982 -79 q 949 -62 965 -79 l 949 40 q 928 54 940 43 q 946 64 933 64 q 950 89 949 67 q 968 107 951 106 l 968 67 q 992 63 975 63 l 992 44 l 968 44 l 968 -44 q 996 -75 981 -53 m 908 -75 l 885 -75 q 886 -15 886 -79 q 856 47 886 47 q 818 -3 824 47 q 817 -75 817 -39 l 799 -75 l 799 114 l 821 114 q 817 79 817 97 q 819 47 817 63 q 861 64 836 64 q 908 22 908 64 l 908 -75 m 610 88 l 592 88 l 592 114 l 610 114 l 610 88 m 757 -94 q 735 -119 757 -108 q 699 -131 714 -131 q 643 -87 660 -131 q 675 -106 643 -87 q 711 -111 685 -111 q 738 -81 721 -111 l 735 -60 q 696 -75 713 -75 q 655 -53 671 -75 q 639 -4 639 -31 q 707 64 639 64 q 736 47 725 64 q 739 63 739 50 l 757 63 l 757 -94 m 610 -75 l 592 -75 l 592 63 l 610 63 l 610 -75 m 558 -75 l 421 -75 l 421 114 l 554 114 l 554 90 l 444 90 l 444 38 l 547 38 l 547 10 l 444 10 l 444 -50 l 558 -50 l 558 -75 m 738 -6 q 700 47 738 47 q 663 -4 663 47 q 700 -56 663 -56 q 738 -6 738 -56 z "},"9":{"ha":1389,"x_min":274,"x_max":1146,"o":"m 1146 408 q 1081 249 1132 278 q 911 229 1049 229 q 806 319 800 229 l 829 738 l 674 738 l 676 697 q 569 391 688 542 q 294 207 450 240 q 274 308 294 210 q 507 460 422 347 q 592 726 592 572 q 585 739 592 726 l 354 739 l 354 821 l 596 821 l 596 1043 l 678 1043 l 671 1018 l 671 821 l 919 821 l 893 367 q 903 317 893 367 l 1013 317 q 1042 371 1035 333 q 1053 432 1047 401 l 1146 408 m 960 -11 l 854 -15 q 854 -22 854 -18 q 899 -60 854 -60 q 933 -32 924 -60 l 956 -32 q 936 -64 957 -49 q 899 -79 915 -79 q 849 -58 869 -79 q 829 -8 829 -37 q 894 64 829 64 q 960 -11 956 64 m 658 88 l 639 88 l 639 114 l 658 114 l 658 88 m 806 -75 l 782 -75 q 782 -65 782 -72 q 782 -40 782 -57 q 783 -15 783 -24 q 751 47 783 47 q 711 -32 711 47 q 713 -52 711 -37 q 714 -75 714 -67 l 694 -75 l 694 63 l 714 63 l 714 57 q 717 43 713 50 q 751 64 732 64 q 806 26 806 64 l 806 -75 m 658 -75 l 639 -75 l 639 63 l 658 63 l 658 -75 m 593 -75 l 568 -75 l 474 68 l 474 -75 l 449 -75 l 449 114 l 471 114 l 571 -32 l 571 114 l 593 114 l 593 -75 m 936 8 q 897 47 921 47 q 869 35 876 47 q 853 8 861 22 l 936 8 z "}," ":{"ha":1389,"x_min":0,"x_max":0,"o":""},"<":{"ha":1389,"x_min":258,"x_max":1139,"o":"m 1139 540 l 1110 457 q 722 643 915 497 q 290 417 518 494 q 258 499 271 456 q 663 700 504 575 q 553 853 596 778 q 322 654 404 690 q 286 733 303 681 q 453 866 369 771 q 557 1047 538 961 q 646 1018 588 1039 l 614 975 l 867 972 l 894 996 q 972 935 917 981 q 879 817 942 903 q 782 700 824 739 q 1139 540 896 606 m 897 458 q 860 381 885 432 q 588 461 800 407 q 611 535 596 486 l 632 535 q 765 503 658 535 q 897 458 872 472 m 1083 58 q 1078 49 1082 57 q 1069 40 1075 40 q 1065 42 1065 40 q 1060 43 1064 43 q 1031 -6 1035 43 q 1031 -75 1031 -4 l 1013 -75 l 1013 63 q 1035 47 1022 60 q 1049 64 1054 64 q 1067 61 1056 64 q 1083 58 1078 58 m 956 261 l 919 175 q 475 290 726 246 q 497 364 478 308 q 956 261 672 360 m 983 -11 l 878 -15 q 878 -22 878 -18 q 922 -60 878 -60 q 957 -32 947 -60 l 979 -32 q 960 -64 981 -49 q 922 -79 939 -79 q 873 -58 893 -79 q 853 -8 853 -37 q 918 64 853 64 q 983 -11 979 64 m 844 -75 q 836 -77 842 -75 q 828 -79 831 -79 q 797 -62 815 -79 l 797 40 q 778 54 790 43 q 794 64 782 64 q 800 89 799 67 q 817 107 800 106 l 817 67 q 840 63 824 63 l 840 44 l 817 44 l 817 -44 q 844 -75 829 -53 m 607 88 l 588 88 l 588 114 l 607 114 l 607 88 m 754 -75 l 731 -75 q 732 -15 732 -79 q 700 47 732 47 q 663 -3 668 47 q 663 -75 663 -39 l 643 -75 l 643 63 l 663 63 l 663 57 q 665 43 661 50 q 700 64 681 64 q 754 26 754 64 l 754 -75 m 607 -75 l 588 -75 l 588 63 l 607 63 l 607 -75 m 563 114 l 515 -75 l 489 -75 q 443 88 475 -21 l 396 -75 l 369 -75 l 322 114 l 344 114 l 383 -43 q 429 114 399 10 l 456 114 q 501 -43 471 61 l 540 114 l 563 114 m 838 896 l 619 896 q 724 758 660 813 q 838 896 763 794 m 960 8 q 921 47 944 47 q 892 35 900 47 q 876 8 885 22 l 960 8 z "},"=":{"ha":1389,"x_min":263,"x_max":1139,"o":"m 1139 490 l 1106 417 q 922 540 1031 463 l 922 192 l 854 192 l 854 214 l 543 214 l 539 179 l 469 179 l 469 515 q 299 397 401 456 q 263 467 286 419 q 382 543 322 506 q 488 636 449 589 l 282 636 l 282 697 l 536 697 q 583 775 571 744 l 378 775 l 378 840 l 608 840 q 632 906 618 861 l 326 906 l 326 971 l 643 971 q 667 1058 661 1011 q 757 1046 699 1057 q 725 974 746 1022 l 1063 974 l 1063 908 l 714 908 l 690 843 l 1015 843 l 1015 778 l 813 778 q 868 697 817 758 l 1118 697 l 1118 636 l 924 636 q 1139 490 956 596 m 1058 -94 q 1037 -119 1058 -108 q 1000 -131 1015 -131 q 944 -87 961 -131 q 976 -106 944 -87 q 1013 -111 986 -111 q 1039 -81 1022 -111 l 1036 -60 q 997 -75 1014 -75 q 956 -53 972 -75 q 940 -4 940 -31 q 1008 64 940 64 q 1038 47 1026 64 q 1040 63 1040 50 l 1058 63 l 1058 -94 m 765 88 l 746 88 l 746 114 l 765 114 l 765 88 m 917 -75 l 893 -75 q 893 -65 893 -72 q 893 -40 893 -57 q 894 -15 894 -24 q 863 47 894 47 q 822 -32 822 47 q 824 -52 822 -37 q 825 -75 825 -67 l 806 -75 l 806 63 l 825 63 l 825 57 q 828 43 824 50 q 863 64 843 64 q 917 26 917 64 l 917 -75 m 765 -75 l 746 -75 l 746 63 l 765 63 l 765 -75 m 729 58 q 726 49 729 57 q 717 40 722 40 q 711 42 711 40 q 706 43 711 43 q 678 -6 682 43 q 678 -75 678 -4 l 660 -75 l 660 63 q 681 47 669 60 q 696 64 700 64 q 713 61 701 64 q 729 58 725 58 m 626 -6 q 611 -57 626 -35 q 567 -79 596 -79 q 535 -64 558 -79 q 532 -93 532 -76 q 535 -126 532 -110 l 510 -126 l 510 63 l 526 63 q 533 47 528 57 q 569 64 549 64 q 626 -6 626 64 m 481 -22 q 458 -63 481 -47 q 408 -79 435 -79 q 355 -60 379 -79 q 329 -12 331 -42 l 353 -12 q 403 -56 363 -56 q 456 -24 456 -56 q 397 13 456 -1 q 338 64 338 28 q 404 115 338 115 q 475 60 467 115 l 453 60 q 433 84 449 72 q 404 96 418 96 q 361 65 361 96 q 391 36 361 42 q 449 25 421 31 q 481 -22 481 14 m 778 699 q 738 778 749 742 l 664 778 q 628 699 656 753 l 778 699 m 885 568 q 824 639 861 592 l 589 639 q 524 568 557 600 l 885 568 m 853 425 l 853 507 l 540 507 l 540 425 l 853 425 m 853 278 l 853 360 l 540 360 l 540 278 l 853 278 m 1039 -6 q 1001 47 1039 47 q 964 -4 964 47 q 1001 -56 964 -56 q 1039 -6 1039 -56 m 607 -6 q 567 47 607 47 q 540 29 551 47 q 528 -6 528 11 q 567 -60 528 -60 q 597 -42 586 -60 q 607 -6 607 -25 z "},">":{"ha":1389,"x_min":211,"x_max":1201,"o":"m 1126 257 q 1110 183 1125 247 l 1061 183 q 893 208 1003 183 q 722 258 783 232 q 307 179 499 179 q 286 249 293 211 l 311 249 q 647 300 511 247 l 533 404 q 333 314 383 314 l 294 383 q 443 431 390 403 q 560 533 513 465 q 406 532 544 536 l 406 885 l 608 885 q 631 942 613 890 l 282 942 l 282 1003 l 1118 1003 l 1118 944 l 721 944 q 697 888 717 938 l 996 888 l 996 536 l 646 536 l 615 494 l 890 492 l 918 508 q 976 450 961 474 q 801 304 881 361 q 1126 257 903 264 m 1201 58 q 1198 49 1201 57 q 1189 40 1194 40 q 1183 42 1183 40 q 1178 43 1182 43 q 1150 -6 1154 43 q 1150 -75 1150 -4 l 1132 -75 l 1132 63 q 1153 47 1140 60 q 1168 64 1172 64 q 1185 61 1174 64 q 1201 58 1197 58 m 1103 -11 l 997 -15 q 996 -22 996 -18 q 1042 -60 996 -60 q 1076 -32 1067 -60 l 1099 -32 q 1079 -64 1100 -49 q 1042 -79 1058 -79 q 992 -58 1011 -79 q 972 -8 972 -37 q 1038 64 972 64 q 1103 -11 1099 64 m 944 -75 l 925 -75 q 925 -19 925 -79 q 899 47 925 47 q 861 -24 861 47 q 863 -50 861 -33 q 864 -75 864 -67 l 842 -75 l 842 29 q 817 47 842 47 q 782 -1 788 47 q 781 -72 781 -4 l 781 -75 l 763 -75 l 763 63 l 781 63 l 781 57 q 783 47 781 51 q 821 64 800 64 q 860 43 849 64 q 872 53 861 43 q 904 64 882 64 q 944 38 944 64 l 944 -75 m 726 -75 l 707 -75 q 707 -21 707 -78 q 681 47 707 47 q 643 -24 643 47 q 644 -50 643 -33 q 646 -75 646 -67 l 624 -75 l 624 29 q 599 47 624 47 q 563 -1 569 47 q 563 -72 563 -4 l 563 -75 l 544 -75 l 544 63 l 563 63 l 563 57 q 565 47 563 51 q 596 64 583 64 q 642 43 631 64 q 653 53 642 43 q 686 64 664 64 q 726 38 726 64 l 726 -75 m 506 -75 l 485 -75 l 485 -68 q 482 -60 485 -62 q 440 -79 463 -79 q 414 -69 431 -79 q 397 -49 397 -58 l 397 63 l 417 63 q 415 40 415 56 q 414 17 414 25 q 446 -60 414 -60 q 486 -1 486 -60 q 485 25 486 7 q 483 51 483 43 q 485 63 483 60 l 506 63 l 506 -75 m 361 -22 q 338 -63 361 -47 q 290 -79 315 -79 q 236 -60 260 -79 q 211 -12 213 -42 l 233 -12 q 283 -56 243 -56 q 338 -24 338 -56 q 278 17 338 4 q 218 64 218 29 q 286 115 218 115 q 357 60 349 115 l 335 60 q 314 84 329 72 q 286 96 299 96 q 242 65 242 96 q 301 31 242 42 q 361 -22 361 19 m 919 790 l 919 836 l 481 836 l 481 790 l 919 790 m 919 689 l 919 739 l 482 739 l 482 689 l 919 689 m 919 583 l 919 640 l 482 640 l 482 583 l 919 583 m 840 428 l 603 428 q 724 338 696 338 q 786 375 740 338 q 840 428 828 408 m 1079 8 q 1039 47 1064 47 q 1011 35 1019 47 q 996 8 1003 22 l 1079 8 z "},"?":{"ha":1389,"x_min":242,"x_max":1154,"o":"m 1135 858 q 1090 715 1118 851 q 1047 579 1063 579 q 1014 592 1044 579 q 976 608 979 607 q 1044 885 1017 704 q 1135 858 1075 878 m 1154 272 l 1101 186 q 886 488 953 283 q 785 302 856 389 q 625 171 714 215 q 568 244 592 208 q 792 469 729 313 q 839 788 839 586 q 836 917 839 832 q 833 1043 833 1003 l 924 1043 l 913 1025 l 913 668 q 990 444 913 567 q 1154 272 1064 326 m 778 854 q 750 725 767 850 q 733 579 742 653 q 647 596 704 586 q 671 864 671 692 l 764 864 l 778 854 m 1139 -75 l 1115 -75 q 1115 -65 1115 -72 q 1115 -40 1115 -57 q 1117 -15 1117 -24 q 1085 47 1117 47 q 1044 -32 1044 47 q 1046 -52 1044 -37 q 1047 -75 1047 -67 l 1028 -75 l 1028 63 l 1047 63 l 1047 57 q 1050 43 1046 50 q 1085 64 1065 64 q 1139 26 1139 64 l 1139 -75 m 643 554 l 593 472 l 497 568 l 497 167 l 418 167 l 418 560 q 300 381 374 475 l 242 439 q 417 735 375 596 q 271 735 401 739 l 271 813 l 419 813 l 419 925 q 303 913 381 918 q 274 975 293 933 q 431 1015 308 979 q 553 1051 549 1051 q 611 967 571 1051 l 588 968 q 496 938 543 971 l 496 815 l 631 815 l 631 739 l 496 736 l 496 668 q 643 554 549 635 m 988 -75 l 968 -75 q 969 -21 969 -78 q 942 47 969 47 q 904 -24 904 47 q 906 -50 904 -33 q 908 -75 908 -67 l 885 -75 l 885 29 q 861 47 885 47 q 825 -1 831 47 q 825 -72 825 -4 l 825 -75 l 806 -75 l 806 63 l 825 63 l 825 57 q 828 47 824 51 q 857 64 846 64 q 903 43 892 64 q 915 53 904 43 q 949 64 926 64 q 988 38 988 64 l 988 -75 m 767 -75 l 746 -75 l 747 -68 q 744 -60 747 -62 q 703 -79 725 -79 q 675 -69 692 -79 q 658 -49 658 -58 l 658 63 l 678 63 q 676 40 678 56 q 675 17 675 25 q 708 -60 675 -60 q 749 -1 749 -60 q 747 25 749 7 q 746 51 746 43 q 747 63 746 60 l 767 63 l 767 -75 m 639 -75 q 631 -77 636 -75 q 621 -79 625 -79 q 592 -62 608 -79 l 592 40 q 571 54 583 43 q 589 64 576 64 q 593 89 592 67 q 611 107 594 106 l 611 67 q 635 63 618 63 l 635 44 l 611 44 l 611 -44 q 639 -75 624 -53 m 549 -75 l 528 -75 l 528 -68 q 525 -60 529 -62 q 483 -79 507 -79 q 457 -69 474 -79 q 440 -49 440 -58 l 440 63 l 460 63 q 458 40 460 56 q 457 17 457 25 q 490 -60 457 -60 q 531 -1 531 -60 q 529 26 531 8 q 528 53 528 43 q 529 63 528 60 l 549 63 l 549 -75 m 417 -75 l 390 -75 q 363 -15 382 -54 l 292 -15 q 269 -75 274 -49 l 242 -75 l 314 115 l 340 115 l 417 -75 m 361 4 q 328 92 349 33 q 299 4 317 63 l 361 4 z "},"A":{"ha":1389,"x_min":275,"x_max":1135,"o":"m 1024 971 q 986 972 1036 972 l 369 928 q 338 943 340 928 q 325 994 332 968 q 706 1022 446 999 q 958 1043 953 1043 q 1024 971 978 1043 m 1071 597 q 1043 572 1067 586 q 1006 547 1011 553 q 893 676 940 628 q 950 714 943 714 q 1071 597 967 714 m 757 850 l 679 825 q 619 903 661 850 q 696 928 694 928 q 757 850 713 928 m 1110 651 l 1036 651 l 1036 750 l 350 750 l 350 639 l 275 639 l 275 813 l 822 813 q 897 951 833 826 q 942 931 911 946 q 988 911 974 917 q 908 815 963 882 l 1110 815 l 1110 651 m 765 664 q 700 626 749 651 q 643 713 681 656 q 704 738 706 738 q 765 664 717 738 m 551 846 q 469 821 476 821 q 444 847 464 821 q 413 892 415 889 q 490 917 488 917 q 551 846 504 917 m 1135 269 q 1101 186 1131 257 l 1058 186 q 836 230 964 186 q 722 274 708 274 q 339 179 399 178 l 306 179 q 290 253 300 201 q 650 311 494 260 q 538 408 590 356 q 339 325 458 350 q 314 392 326 346 q 575 533 474 425 q 550 547 563 540 q 528 574 528 561 l 528 721 l 607 721 q 594 657 594 654 q 601 606 594 618 q 628 594 608 594 q 660 597 633 594 q 710 599 688 599 q 733 599 717 599 q 763 597 751 597 q 829 636 829 597 q 822 665 829 649 q 889 650 836 660 l 889 628 q 826 536 889 536 l 661 536 q 626 494 649 517 l 899 492 q 918 504 907 492 q 981 458 939 488 q 801 315 863 358 q 1135 269 938 265 m 496 657 q 399 524 464 613 q 333 565 375 533 q 422 694 379 604 q 496 657 458 682 m 975 -11 l 869 -15 q 880 -47 867 -33 q 914 -60 893 -60 q 949 -32 939 -60 l 971 -32 q 953 -63 972 -47 q 914 -79 933 -79 q 865 -58 885 -79 q 844 -8 844 -37 q 911 64 844 64 q 975 -11 971 64 m 833 63 l 785 -75 l 758 -75 l 711 63 l 733 63 q 772 -43 744 28 q 814 63 785 -8 l 833 63 m 694 -6 q 633 -79 694 -79 q 583 -54 601 -79 q 567 -8 567 -33 q 633 64 567 64 q 694 -6 694 64 m 551 -75 l 433 -75 l 433 114 l 456 114 l 456 -50 l 551 -50 l 551 -75 m 849 426 l 599 426 q 724 344 708 344 q 849 426 749 344 m 951 8 q 913 47 938 47 q 885 35 893 47 q 869 8 876 22 l 951 8 m 675 -6 q 664 28 675 10 q 633 47 653 47 q 592 -6 592 47 q 633 -60 592 -60 q 675 -6 675 -60 z "},"B":{"ha":1389,"x_min":263,"x_max":1131,"o":"m 1107 878 l 932 878 q 979 790 976 821 q 890 774 953 783 q 843 881 876 810 l 788 881 q 708 742 764 832 q 672 774 706 744 q 650 797 650 792 q 701 901 650 792 q 753 1058 751 1011 q 849 1039 801 1053 q 813 946 835 1008 l 1107 946 l 1107 878 m 682 878 l 556 878 q 594 792 596 808 l 594 774 q 508 754 571 771 q 461 881 497 818 l 411 881 q 319 746 379 803 q 263 799 308 753 q 393 1056 367 929 l 410 1056 q 486 1038 428 1056 q 459 998 469 1025 q 440 946 449 971 l 682 946 l 682 878 m 1131 265 q 1099 179 1119 235 l 1078 179 q 926 229 1033 179 q 814 288 840 268 q 708 413 757 326 q 547 242 700 333 q 326 158 407 158 l 310 158 q 278 244 289 207 q 482 301 429 278 q 647 469 601 356 l 294 469 l 294 544 l 656 544 l 653 638 l 369 626 q 346 697 365 638 q 474 703 381 696 q 951 750 763 721 q 1015 664 1003 689 l 735 643 l 735 544 l 1103 544 l 1103 472 l 767 469 q 931 321 807 372 q 1131 265 976 301 m 1051 -75 l 1028 -75 q 1029 -6 1029 -40 q 997 47 1026 47 q 958 -31 958 47 q 960 -75 958 -86 l 940 -75 l 940 114 l 963 114 q 963 47 957 81 q 1004 64 979 64 q 1051 22 1051 64 l 1051 -75 m 900 -94 q 872 -122 900 -111 q 842 -131 851 -131 q 786 -87 803 -131 q 818 -106 801 -94 q 843 -111 825 -111 q 863 -108 858 -111 q 881 -81 867 -106 l 878 -60 q 839 -75 856 -75 q 798 -53 814 -75 q 782 -4 782 -31 q 842 64 782 64 q 879 47 868 64 q 882 63 882 50 l 900 63 l 900 -94 m 751 -75 l 731 -75 q 728 -60 731 -62 q 686 -79 710 -79 q 659 -69 675 -79 q 643 -49 643 -58 l 643 63 l 663 63 q 660 -3 663 -25 q 692 -60 664 -60 q 732 -1 732 -60 q 731 28 732 10 q 729 53 729 47 q 731 63 729 60 l 751 63 l 751 -75 m 611 -75 l 588 -75 q 581 -60 588 -67 q 533 -79 556 -79 q 488 -40 488 -79 q 503 -9 488 -18 q 557 4 518 0 q 583 22 583 7 q 550 47 583 47 q 515 21 521 47 q 499 23 506 21 q 493 25 493 25 q 551 64 500 64 q 607 4 607 64 q 607 -18 607 -3 q 606 -40 606 -32 q 611 -75 606 -61 m 468 -75 l 350 -75 l 350 114 l 372 114 l 372 -50 l 468 -50 l 468 -75 m 881 -6 q 843 47 881 47 q 806 -4 806 47 q 843 -56 806 -56 q 881 -6 881 -56 m 583 -35 l 583 -8 q 538 -17 560 -12 q 513 -28 522 -19 l 513 -47 q 542 -60 526 -60 q 568 -52 553 -60 q 583 -35 583 -44 z "},"C":{"ha":1389,"x_min":265,"x_max":1126,"o":"m 1082 794 l 564 794 l 564 864 l 774 864 l 774 1031 l 860 1031 q 849 1013 860 1018 l 849 867 l 1082 867 l 1082 794 m 511 919 q 458 833 485 869 q 318 922 414 865 q 363 1000 340 967 q 511 919 431 975 m 1126 226 l 496 226 l 496 301 l 822 301 q 872 511 846 372 q 921 765 897 639 l 1028 736 q 968 549 1003 690 q 908 304 914 324 l 1126 304 l 1126 226 m 761 390 q 668 357 735 382 q 643 500 654 453 q 588 706 626 579 q 665 733 615 714 q 761 390 706 658 m 481 681 q 426 599 464 654 l 278 700 q 326 778 285 715 q 481 681 411 728 m 900 63 q 867 -42 883 11 q 815 -131 844 -99 l 790 -126 l 790 -108 q 829 -75 829 -106 q 782 63 829 -68 l 804 63 q 843 -43 815 28 l 882 63 l 900 63 m 504 488 q 433 351 504 479 q 351 190 360 219 q 265 268 328 206 l 438 543 q 504 488 504 490 m 774 58 q 769 49 774 58 q 760 40 765 40 q 754 42 756 40 l 754 42 q 750 43 754 43 q 721 -7 725 43 q 721 -75 721 -3 l 703 -75 l 703 63 q 725 47 713 58 q 739 64 728 53 q 764 61 754 64 q 774 58 774 58 m 671 -22 q 638 -64 671 -46 q 592 -79 611 -79 q 526 -49 549 -79 q 504 19 504 -18 q 526 87 504 58 q 593 115 549 115 q 667 65 646 115 q 657 60 664 63 q 649 56 650 57 q 626 83 638 69 q 592 96 614 96 q 528 19 528 96 q 592 -56 528 -56 q 647 -8 642 -56 q 671 -22 671 -19 z "},"D":{"ha":1389,"x_min":254,"x_max":1138,"o":"m 1138 703 l 932 703 l 861 589 l 1103 589 l 1103 510 l 733 510 l 733 422 l 1082 422 l 1082 347 l 735 347 l 735 167 l 656 167 l 656 343 l 317 343 l 317 422 l 656 422 l 656 510 l 289 510 l 289 589 l 536 589 l 461 703 l 254 703 l 254 779 l 656 779 l 656 868 l 354 868 l 354 943 l 654 943 l 654 1063 l 746 1063 q 733 1044 746 1056 l 733 946 l 1035 946 l 1035 867 l 733 867 l 733 779 l 1138 779 l 1138 703 m 1075 63 q 1040 -42 1058 11 q 990 -131 1019 -99 l 964 -126 l 964 -108 q 1004 -75 1004 -106 q 957 63 1004 -68 l 979 63 q 1018 -43 990 28 l 1056 63 l 1075 63 m 936 -6 q 924 -53 936 -32 q 876 -79 907 -79 q 844 -64 868 -79 q 844 -126 838 -92 l 819 -126 l 819 63 l 836 63 q 843 47 838 57 q 881 64 858 64 q 936 -6 936 64 m 789 -6 q 776 -53 789 -33 q 731 -79 760 -79 q 697 -64 721 -79 q 697 -126 692 -92 l 674 -126 l 674 63 l 689 63 q 696 47 690 57 q 733 64 714 64 q 789 -6 789 64 m 642 -75 l 619 -75 q 613 -60 619 -67 q 565 -79 588 -79 q 519 -40 519 -79 q 532 -10 519 -18 q 588 4 550 0 q 615 22 615 7 q 581 47 615 47 q 547 21 553 47 q 531 23 538 21 q 524 25 525 25 q 583 64 533 64 q 639 6 639 64 q 638 -17 639 -1 q 638 -40 638 -32 q 642 -75 638 -61 m 486 -75 l 461 -75 q 461 17 467 -32 l 367 17 l 367 -75 l 342 -75 l 342 114 l 364 114 l 364 35 l 457 35 q 465 71 467 46 q 465 114 465 114 l 486 114 l 486 -75 m 838 701 l 556 701 l 632 588 l 776 588 q 838 701 789 615 m 917 -6 q 876 47 917 47 q 848 28 858 47 q 838 -6 838 10 q 876 -60 838 -60 q 906 -43 894 -60 q 917 -6 917 -26 m 769 -6 q 731 47 769 47 q 701 28 711 47 q 690 -6 690 10 q 731 -60 690 -60 q 758 -43 747 -60 q 769 -6 769 -26 m 614 -35 l 614 -8 q 569 -17 592 -12 q 543 -28 554 -19 l 543 -47 q 574 -60 558 -60 q 614 -35 615 -56 z "},"E":{"ha":1389,"x_min":263,"x_max":1135,"o":"m 1135 556 l 750 556 l 750 239 q 730 206 750 222 q 696 190 710 190 l 576 190 q 556 276 561 239 q 660 276 550 276 l 660 554 l 263 554 l 263 642 l 658 642 l 658 817 q 724 806 718 806 q 801 851 746 806 q 874 914 838 883 l 365 914 l 365 988 l 926 988 q 935 994 929 988 q 946 1000 942 1000 q 1019 926 958 1000 l 750 726 l 750 644 l 1135 644 l 1135 556 m 979 -75 l 961 -75 q 958 -60 961 -62 q 921 -79 944 -79 q 875 -50 893 -79 q 861 -6 861 -28 q 921 64 861 64 q 958 47 949 64 q 957 114 964 75 l 979 114 l 979 -75 m 774 88 l 754 88 l 754 114 l 774 114 l 774 88 m 832 -75 l 814 -75 l 814 114 l 832 114 l 832 -75 m 774 -75 l 754 -75 l 754 63 l 774 63 l 774 -75 m 718 -75 l 694 -75 q 696 -6 696 -40 q 664 47 694 47 q 625 -31 625 47 q 626 -75 625 -86 l 607 -75 l 607 114 l 631 114 q 629 47 624 81 q 671 64 646 64 q 718 22 718 64 l 718 -75 m 575 -22 q 545 -62 575 -46 q 496 -79 515 -79 q 431 -49 454 -79 q 408 19 408 -18 q 431 87 408 58 q 497 115 454 115 q 571 65 551 115 q 563 60 569 63 q 554 56 556 57 q 530 83 542 69 q 496 96 518 96 q 432 19 432 96 q 496 -56 432 -56 q 553 -8 546 -56 q 575 -22 575 -19 m 960 -6 q 922 47 960 47 q 885 -6 885 47 q 925 -60 885 -60 q 960 -6 960 -60 z "},"F":{"ha":1389,"x_min":258,"x_max":1142,"o":"m 1142 628 l 1007 628 q 983 386 983 543 l 1114 386 l 1114 314 l 983 314 q 894 183 957 183 l 758 183 q 758 254 758 207 q 798 252 774 254 q 831 250 822 250 q 897 307 879 250 l 889 314 l 424 314 q 413 276 415 300 q 408 239 410 244 q 326 239 360 244 l 381 619 l 374 626 l 258 626 l 258 697 l 386 697 l 414 999 l 997 999 l 997 700 l 1142 700 l 1142 628 m 1115 58 q 1110 49 1114 57 q 1101 40 1107 40 q 1096 42 1096 40 q 1092 43 1096 43 q 1063 -6 1067 43 q 1063 -75 1063 -4 l 1044 -75 l 1044 63 q 1065 47 1054 60 q 1081 64 1085 64 q 1098 61 1086 64 q 1115 58 1110 58 m 1011 -11 l 906 -15 q 906 -22 906 -18 q 950 -60 906 -60 q 985 -32 975 -60 l 1007 -32 q 988 -64 1008 -49 q 950 -79 967 -79 q 901 -58 921 -79 q 881 -8 881 -37 q 946 64 881 64 q 1011 -11 1007 64 m 857 -75 l 833 -75 q 835 -15 835 -82 q 803 47 835 47 q 765 -3 771 47 q 765 -75 765 -39 l 746 -75 l 746 114 l 768 114 q 765 79 765 97 q 768 47 765 63 q 810 64 785 64 q 857 22 857 64 l 857 -75 m 725 -75 q 718 -77 724 -75 q 708 -79 713 -79 q 679 -62 696 -79 l 679 40 q 658 54 671 43 q 675 64 664 64 q 681 89 679 67 q 697 107 682 106 l 697 67 q 721 63 706 63 l 721 44 l 697 44 l 697 -44 q 725 -75 711 -53 m 643 -6 q 581 -79 643 -79 q 534 -58 553 -79 q 515 -8 515 -37 q 581 64 515 64 q 643 -6 643 64 m 486 -75 l 461 -75 l 461 79 q 408 -75 428 -10 l 386 -75 l 331 79 l 331 -75 l 306 -75 l 306 114 l 340 114 l 399 -43 l 457 114 l 486 114 l 486 -75 m 924 703 l 924 928 l 489 928 l 468 703 l 924 703 m 919 624 l 461 624 l 433 388 l 904 388 l 919 624 m 988 8 q 949 47 974 47 q 921 35 929 47 q 904 8 913 22 l 988 8 m 622 -6 q 610 30 622 13 q 581 47 599 47 q 539 -6 539 47 q 581 -60 539 -60 q 622 -6 622 -60 m 801 803 q 778 768 801 799 q 749 731 763 749 q 603 831 694 785 q 649 904 611 850 q 733 858 679 890 q 801 803 801 818 m 786 506 q 732 421 758 457 q 579 529 665 476 q 628 603 596 554 q 786 506 703 572 z "},"G":{"ha":1389,"x_min":286,"x_max":1111,"o":"m 1111 776 q 1038 699 1057 699 q 793 946 997 699 q 860 1007 815 974 q 1111 776 1006 835 m 619 938 q 486 796 553 867 q 343 678 396 700 q 286 747 319 708 q 422 871 354 810 q 538 1004 514 957 q 619 938 585 972 m 1107 292 q 1058 203 1099 274 q 713 389 835 285 q 347 194 588 274 q 297 276 333 214 q 647 450 531 356 q 488 704 597 511 q 563 746 517 724 q 625 631 593 688 q 700 524 663 565 q 776 642 739 560 q 831 774 803 707 q 925 721 892 743 q 843 590 890 681 q 765 463 796 500 q 928 360 829 404 q 1107 292 975 339 m 1083 58 q 1078 49 1082 57 q 1069 40 1075 40 q 1064 42 1065 40 q 1060 43 1063 43 q 1031 -7 1035 43 q 1031 -75 1031 -3 l 1013 -75 l 1013 63 q 1035 47 1022 60 q 1049 64 1051 64 q 1066 61 1054 64 q 1083 58 1078 58 m 983 -11 l 878 -15 l 878 -22 q 922 -60 878 -60 q 957 -32 947 -60 l 979 -32 q 960 -64 981 -49 q 922 -79 939 -79 q 873 -58 893 -79 q 853 -8 853 -37 q 918 64 853 64 q 983 -11 979 64 m 829 -75 l 806 -75 q 804 -60 804 -68 q 806 -37 804 -51 q 807 -15 807 -22 q 775 47 807 47 q 739 1 744 47 q 738 -69 738 -35 l 738 -75 l 718 -75 l 718 114 l 740 114 q 738 79 738 97 q 740 47 738 63 q 782 64 757 64 q 829 22 829 64 l 829 -75 m 694 -75 q 685 -77 690 -75 q 676 -79 679 -79 q 647 -62 664 -79 l 647 40 q 626 54 639 43 q 644 64 632 64 q 649 81 649 68 l 649 85 q 667 107 649 106 l 667 67 q 690 63 674 63 l 690 44 l 667 44 l 667 -44 q 694 -75 679 -53 m 611 -75 l 588 -75 q 581 -60 588 -67 q 533 -79 556 -79 q 488 -40 488 -79 q 535 2 488 -4 q 583 22 583 8 q 550 47 583 47 q 515 21 521 47 q 493 25 507 22 q 551 64 500 64 q 601 39 590 64 q 606 -17 608 24 q 611 -75 604 -58 m 464 90 l 364 90 l 364 33 l 451 33 l 451 13 l 367 13 l 367 -75 l 342 -75 l 342 114 l 464 114 l 464 90 m 960 8 q 921 47 944 47 q 892 35 900 47 q 876 8 885 22 l 960 8 m 583 -35 l 583 -8 q 546 -14 564 -11 q 513 -28 522 -18 l 513 -47 q 542 -60 528 -60 q 569 -52 554 -60 q 583 -35 583 -44 z "},"H":{"ha":1389,"x_min":290,"x_max":1118,"o":"m 1103 763 l 1028 763 l 1028 889 l 367 889 l 367 763 l 290 763 l 290 964 l 646 964 q 646 1047 649 1004 l 749 1043 l 738 1025 l 738 965 l 1103 965 l 1103 763 m 1118 315 q 1065 231 1097 276 q 828 456 925 328 q 826 381 824 442 q 829 303 829 297 q 808 225 829 264 q 747 179 783 179 l 608 179 q 596 261 601 204 q 636 261 611 261 q 671 260 661 260 q 732 276 715 260 q 754 361 754 299 q 747 449 754 408 q 343 207 576 303 l 306 285 q 726 526 544 364 l 700 567 q 367 385 532 439 q 333 456 358 406 q 654 614 511 503 l 621 647 q 322 528 482 560 l 297 601 q 654 744 528 644 l 410 744 l 410 821 l 988 821 l 988 746 l 757 746 q 678 676 736 726 q 781 583 715 649 q 882 649 874 642 q 974 726 938 686 q 1056 656 1050 685 q 944 603 1008 638 q 838 544 890 574 q 1118 315 910 433 m 1043 -11 l 938 -15 q 938 -22 938 -18 q 982 -60 938 -60 q 1017 -32 1007 -60 l 1039 -32 q 1019 -64 1040 -49 q 982 -79 999 -79 q 933 -58 953 -79 q 913 -8 913 -37 q 978 64 913 64 q 1043 -11 1039 64 m 885 -75 l 865 -75 q 865 -19 865 -79 q 839 47 865 47 q 801 -24 801 47 q 803 -50 801 -33 q 804 -75 804 -67 l 782 -75 l 782 29 q 758 47 782 47 q 722 -1 728 47 q 721 -72 721 -4 l 721 -75 l 703 -75 l 703 63 l 721 63 l 721 57 q 724 47 721 51 q 761 64 740 64 q 800 43 789 64 q 813 53 801 43 q 844 64 824 64 q 885 38 885 64 l 885 -75 m 671 -6 q 608 -79 671 -79 q 562 -58 581 -79 q 543 -8 543 -37 q 608 64 543 64 q 671 -6 671 64 m 514 -75 l 489 -75 q 492 -29 492 -53 q 489 17 492 -7 l 394 17 l 394 -75 l 369 -75 l 369 114 l 392 114 l 392 35 l 485 35 q 493 68 493 44 q 492 103 493 85 l 493 114 l 514 114 l 514 -75 m 1019 8 q 981 47 1004 47 q 952 35 960 47 q 936 8 944 22 l 1019 8 m 650 -6 q 638 30 650 13 q 608 47 626 47 q 567 -6 567 47 q 608 -60 567 -60 q 650 -6 650 -60 z "},"I":{"ha":1389,"x_min":275,"x_max":1136,"o":"m 1131 257 l 1106 175 l 1086 175 q 883 251 1018 175 q 708 385 749 326 q 543 233 682 301 q 318 171 417 171 l 290 249 q 479 293 465 288 q 631 414 572 326 l 299 414 l 299 490 l 647 490 q 658 565 660 519 l 275 565 l 275 644 l 663 644 l 663 713 l 378 713 l 378 790 l 663 790 l 663 856 l 319 856 l 319 935 l 544 935 q 492 1010 526 960 q 569 1051 514 1028 q 642 932 610 996 l 758 932 l 831 1067 q 913 1035 856 1058 q 840 935 888 1000 l 1086 935 l 1086 860 l 742 860 l 742 790 l 1026 790 l 1026 713 l 742 713 l 742 644 l 1131 644 l 1131 568 l 744 568 q 733 493 732 536 l 1104 493 l 1104 414 l 782 414 q 1131 257 897 306 m 1021 -114 l 1021 -122 q 1024 -128 1022 -124 q 1025 -135 1025 -133 q 1028 -135 1026 -135 q 1033 -136 1031 -136 l 1039 -136 l 1049 -136 q 1056 -135 1053 -136 q 1064 -127 1058 -133 q 1072 -118 1069 -121 q 1078 -108 1074 -117 q 1085 -96 1083 -100 q 1090 -81 1086 -93 q 1097 -62 1094 -69 q 1107 -32 1100 -51 q 1121 6 1114 -12 q 1136 49 1128 26 l 1136 57 l 1111 57 q 1106 39 1108 47 q 1101 25 1103 32 q 1097 14 1099 18 q 1093 3 1096 11 q 1088 -15 1090 -6 q 1081 -33 1085 -25 q 1076 -44 1078 -42 q 1070 -26 1075 -39 q 1060 0 1065 -14 q 1050 26 1056 14 q 1043 44 1044 39 q 1039 53 1043 49 q 1036 57 1039 57 q 1024 58 1033 57 q 1013 58 1015 58 l 1013 53 q 1021 31 1015 46 q 1033 -2 1026 15 q 1044 -34 1039 -19 q 1051 -54 1049 -49 q 1057 -67 1054 -57 q 1060 -79 1060 -76 l 1060 -81 l 1060 -83 q 1058 -89 1060 -85 q 1056 -96 1057 -93 q 1047 -108 1053 -104 q 1039 -112 1043 -112 q 1031 -113 1038 -112 q 1021 -114 1024 -114 m 499 -12 l 499 -36 q 501 -42 499 -37 q 503 -49 503 -46 q 507 -54 507 -49 q 513 -61 511 -58 l 515 -67 q 521 -71 517 -68 q 528 -75 525 -74 q 538 -81 531 -79 q 544 -83 542 -82 q 554 -84 546 -83 q 565 -85 563 -85 l 578 -85 q 588 -83 582 -85 q 596 -80 590 -83 q 604 -75 601 -76 q 615 -65 607 -72 q 625 -54 624 -57 q 628 -51 626 -54 q 629 -44 629 -47 l 629 -42 l 629 -40 q 619 -37 626 -39 q 608 -36 611 -36 l 607 -36 l 604 -36 q 601 -42 604 -37 q 596 -49 597 -47 q 590 -53 594 -49 q 583 -58 585 -57 q 578 -61 583 -60 q 571 -62 574 -62 l 567 -62 l 564 -62 q 560 -61 563 -62 q 556 -60 557 -60 q 553 -58 554 -60 q 544 -54 549 -54 q 539 -49 543 -53 q 532 -44 535 -46 q 528 -36 532 -40 q 528 -28 528 -33 q 529 -21 529 -24 l 631 -21 q 631 -4 631 -18 q 629 14 631 10 q 628 18 629 15 q 625 24 626 21 q 624 29 625 26 q 621 32 622 32 q 610 42 618 35 q 600 53 603 50 l 592 57 q 585 60 589 58 q 579 61 581 61 l 564 61 l 549 61 l 536 57 q 528 53 532 53 l 511 36 q 508 28 511 35 q 503 19 506 22 q 500 15 501 18 q 499 11 499 14 l 499 10 l 499 -12 m 647 -46 l 647 -50 q 650 -57 649 -53 q 651 -62 651 -61 q 660 -70 654 -64 q 668 -79 665 -76 q 672 -82 668 -78 q 676 -83 674 -83 l 697 -83 l 715 -83 q 721 -82 717 -83 q 728 -79 725 -81 q 737 -74 731 -78 q 744 -71 743 -71 l 749 -75 q 753 -79 750 -78 q 758 -80 754 -79 q 765 -81 763 -81 q 770 -80 767 -81 q 775 -79 774 -79 l 769 -62 l 769 32 q 768 38 769 33 q 765 44 767 42 q 763 49 765 46 q 757 53 760 51 q 754 56 757 54 q 749 57 751 57 q 740 60 746 58 q 732 61 735 61 l 713 61 l 697 61 q 685 58 694 61 q 672 53 675 56 l 660 40 q 656 33 658 39 q 651 24 653 26 l 651 13 q 664 15 654 13 q 676 18 674 17 q 683 25 679 19 q 689 32 688 31 q 690 33 689 33 q 693 35 692 33 q 697 36 694 36 l 711 36 l 728 36 q 736 32 732 36 q 740 28 740 28 q 744 18 744 24 l 744 14 l 744 10 q 714 3 729 6 q 685 -3 699 0 q 679 -4 683 -3 q 672 -7 675 -6 l 667 -10 q 660 -15 664 -11 q 658 -18 660 -17 q 656 -19 656 -19 q 651 -28 656 -24 q 649 -35 651 -31 q 647 -40 647 -39 l 647 -46 m 804 57 l 804 -50 q 806 -56 804 -51 q 808 -62 808 -61 l 825 -79 q 831 -82 825 -79 q 835 -83 833 -83 l 854 -83 l 868 -83 q 881 -78 871 -82 q 893 -71 890 -74 l 897 -79 l 915 -79 l 915 57 l 892 57 l 892 -40 l 889 -43 q 887 -46 888 -44 q 885 -49 886 -47 q 881 -51 883 -49 q 876 -54 878 -53 q 868 -58 872 -58 l 856 -58 l 843 -58 l 835 -50 q 833 -47 833 -49 q 832 -44 832 -46 l 832 57 l 804 57 m 956 36 l 956 -62 q 958 -68 956 -64 q 961 -75 960 -72 l 965 -79 q 968 -82 965 -79 q 971 -83 969 -83 q 988 -84 975 -83 q 1004 -85 1001 -85 l 1004 -62 q 999 -61 1003 -62 q 992 -58 994 -60 q 988 -56 990 -58 q 983 -54 986 -54 l 983 39 l 1004 39 l 1004 60 l 982 60 l 982 106 q 978 105 981 106 q 975 104 976 104 l 969 101 q 961 96 964 99 l 958 93 q 956 92 957 92 l 956 61 q 948 61 953 63 q 940 57 943 60 l 940 49 l 940 40 q 948 36 943 38 q 956 36 953 35 m 332 108 l 332 -79 l 435 -79 q 441 -78 436 -79 q 447 -75 446 -76 q 455 -71 450 -74 q 460 -67 460 -68 q 464 -62 461 -67 q 468 -54 467 -57 l 471 -51 q 472 -49 472 -50 q 475 -40 474 -46 q 476 -32 476 -33 l 476 -25 l 476 -19 q 475 -10 476 -17 q 472 -3 474 -4 q 460 10 469 0 q 447 19 451 19 q 454 28 450 22 q 460 36 458 33 q 464 44 464 40 q 465 52 464 46 q 465 63 465 58 q 465 67 465 64 q 464 72 464 69 l 464 78 q 461 84 464 79 q 456 92 458 89 l 451 96 q 445 101 450 99 q 439 104 440 103 q 433 107 438 106 q 428 108 429 108 l 332 108 m 676 -46 l 676 -44 q 681 -36 681 -40 q 685 -32 682 -35 q 689 -28 689 -29 l 694 -25 q 699 -24 697 -24 q 722 -19 704 -22 q 744 -15 739 -17 l 744 -21 l 744 -28 q 743 -37 744 -31 q 740 -44 742 -43 q 733 -51 739 -47 q 724 -58 726 -56 q 719 -61 724 -60 q 711 -62 714 -62 l 701 -62 l 693 -62 l 685 -58 q 680 -53 682 -56 q 676 -49 678 -50 l 676 -46 m 360 6 l 383 6 l 408 6 q 419 4 411 6 q 428 1 426 3 q 432 0 429 1 q 435 -3 435 -1 q 440 -7 438 -4 q 443 -11 443 -10 q 446 -17 444 -12 q 447 -24 447 -21 l 447 -25 l 447 -28 q 446 -35 447 -31 q 443 -40 444 -39 q 438 -45 442 -42 q 432 -50 433 -49 q 421 -54 428 -54 l 360 -54 l 360 6 m 567 36 l 579 36 q 587 29 581 36 q 596 19 593 22 q 600 14 600 19 q 601 10 601 13 q 601 6 601 7 l 528 6 l 528 10 q 531 15 528 10 q 532 19 532 17 l 544 32 q 546 33 544 33 q 549 35 547 33 q 553 36 550 36 l 567 36 m 360 86 l 383 86 l 408 86 q 417 85 411 86 q 425 82 424 83 q 431 76 428 81 q 435 69 435 72 l 435 65 q 435 62 435 63 q 436 60 436 61 q 435 57 436 58 q 435 53 435 56 l 435 49 q 433 44 435 47 q 432 40 432 42 q 424 35 429 38 q 417 32 419 32 l 360 32 l 360 86 z "},"J":{"ha":1389,"x_min":254,"x_max":1135,"o":"m 1135 792 l 1094 707 q 896 797 985 738 q 896 735 892 776 l 492 735 q 496 763 496 747 l 493 789 q 290 686 414 738 l 254 760 q 481 878 399 822 q 660 1060 594 954 q 710 1054 685 1057 q 746 1033 743 1050 l 738 1021 q 1135 792 896 856 m 1056 311 q 1039 283 1056 299 q 1010 267 1022 267 l 897 267 l 885 336 l 976 336 l 976 586 l 808 586 l 808 163 l 735 163 l 735 658 l 1056 658 l 1056 311 m 943 -75 l 925 -75 l 925 114 l 943 114 l 943 -75 m 646 274 l 572 274 q 572 293 572 272 q 565 310 572 303 l 418 310 q 418 250 415 281 l 338 250 l 338 658 l 646 658 l 646 274 m 886 -75 l 865 -75 l 865 -68 q 863 -60 865 -62 q 821 -79 844 -79 q 794 -69 811 -79 q 778 -49 778 -58 l 778 63 l 797 63 q 796 40 797 56 q 794 17 794 25 q 828 -60 794 -60 q 867 -1 867 -60 q 865 25 867 7 q 864 51 864 43 q 865 63 864 60 l 886 63 l 886 -75 m 746 -6 q 685 -79 746 -79 q 638 -58 656 -79 q 619 -8 619 -37 q 685 64 619 64 q 746 -6 746 64 m 594 -22 q 572 -63 594 -47 q 524 -79 550 -79 q 470 -60 494 -79 q 444 -12 446 -42 l 468 -12 q 485 -44 467 -32 q 524 -56 503 -56 q 571 -24 571 -56 q 512 15 571 -1 q 453 64 453 32 q 519 115 453 115 q 590 60 582 115 l 568 60 q 549 84 564 72 q 519 96 533 96 q 476 65 476 96 q 535 32 476 47 q 594 -22 594 17 m 865 811 q 774 886 826 838 q 688 968 697 960 q 528 811 646 894 l 865 811 m 571 382 l 571 582 l 417 582 l 417 382 l 571 382 m 726 -6 q 715 31 726 14 q 685 47 703 47 q 643 -6 643 47 q 685 -60 643 -60 q 726 -6 726 -60 z "},"K":{"ha":1389,"x_min":254,"x_max":1146,"o":"m 1146 293 l 1114 190 q 869 321 988 225 q 700 536 743 422 q 538 306 678 415 q 279 183 407 201 l 254 276 q 501 394 382 294 q 631 625 631 504 l 314 625 l 314 697 l 639 697 l 639 892 l 278 892 l 278 965 l 1118 965 l 1118 893 l 731 893 l 731 700 l 1075 700 l 1075 628 l 746 624 q 901 407 774 507 q 1146 293 1019 315 m 1139 -75 l 1115 -75 q 1115 -65 1115 -72 q 1115 -40 1115 -57 q 1117 -15 1117 -24 q 1085 47 1117 47 q 1044 -32 1044 47 q 1046 -52 1044 -37 q 1047 -75 1047 -67 l 1028 -75 l 1028 63 l 1047 63 l 1047 57 q 1050 43 1046 50 q 1085 64 1065 64 q 1139 26 1139 64 l 1139 -75 m 999 -11 l 894 -15 q 893 -22 893 -18 q 939 -60 893 -60 q 972 -32 964 -60 l 996 -32 q 976 -64 996 -49 q 939 -79 956 -79 q 889 -58 908 -79 q 869 -8 869 -37 q 935 64 869 64 q 999 -11 996 64 m 853 63 l 804 -75 l 778 -75 l 731 63 l 753 63 q 792 -43 764 26 q 835 63 806 -8 l 853 63 m 714 -75 l 690 -75 q 685 -60 690 -67 q 636 -79 658 -79 q 592 -40 592 -79 q 639 2 592 -4 q 686 22 686 8 q 653 47 686 47 q 618 21 624 47 q 606 22 614 21 q 596 25 599 24 q 654 64 606 64 q 710 6 710 64 q 710 -17 710 -1 q 708 -40 708 -32 q 714 -75 708 -61 m 571 -11 l 465 -15 q 465 -22 465 -18 q 510 -60 465 -60 q 544 -32 535 -60 l 567 -32 q 547 -64 568 -49 q 510 -79 526 -79 q 460 -58 481 -79 q 440 -8 440 -37 q 506 64 440 64 q 571 -11 567 64 m 410 -75 l 385 -75 q 389 -29 389 -53 q 386 17 389 -7 l 292 17 l 292 -75 l 267 -75 l 267 114 l 289 114 l 289 35 l 382 35 q 390 68 390 44 q 389 103 389 85 l 389 114 l 410 114 l 410 -75 m 975 8 q 936 47 963 47 q 908 35 917 47 q 893 8 900 22 l 975 8 m 686 -35 l 686 -8 q 649 -14 667 -11 q 615 -28 625 -18 l 615 -47 q 644 -60 631 -60 q 686 -35 686 -60 m 547 8 q 508 47 533 47 q 481 35 489 47 q 464 8 472 22 l 547 8 z "},"L":{"ha":1389,"x_min":235,"x_max":1142,"o":"m 1075 521 q 1021 488 1051 510 q 940 606 996 528 q 990 639 975 639 q 1038 588 1006 639 q 1075 521 1063 549 m 1142 242 q 1122 167 1139 218 l 1086 167 q 811 246 1022 167 q 489 167 625 167 q 468 238 475 200 q 610 251 597 249 q 746 288 689 263 q 668 361 699 325 q 514 278 583 301 q 481 336 494 300 q 599 399 561 374 q 694 493 653 436 l 667 538 l 667 654 l 538 654 q 538 568 532 617 l 468 568 l 468 701 l 569 701 l 569 932 l 732 932 l 732 957 l 732 982 l 493 982 l 493 1031 l 1110 1031 l 1110 985 l 821 985 q 801 935 806 954 l 999 935 l 999 701 q 1131 701 1007 701 l 1131 572 l 1068 572 l 1068 651 l 813 651 q 861 589 831 632 q 803 551 844 576 q 754 629 797 563 q 782 656 772 643 l 733 656 l 733 549 q 763 528 733 531 q 806 528 761 528 q 867 533 854 528 q 889 590 888 544 q 960 569 913 585 q 946 525 958 567 q 919 485 938 500 l 776 485 q 742 443 764 472 q 822 440 768 440 q 967 456 935 440 l 1039 399 q 881 283 988 358 q 1142 242 965 251 m 658 579 q 611 522 639 565 q 569 456 571 457 q 511 493 550 469 q 592 615 567 549 q 658 579 628 600 m 483 1031 q 447 926 465 1011 q 417 808 425 828 l 444 793 l 432 772 l 432 163 l 350 163 l 350 663 q 317 608 325 619 q 275 560 297 578 l 235 629 q 393 1051 375 804 q 483 1031 426 1047 m 943 -75 l 925 -75 l 925 -68 q 922 -60 925 -62 q 885 -79 908 -79 q 843 -55 861 -79 q 825 -6 825 -31 q 892 64 825 64 q 922 47 914 64 q 925 75 925 60 q 921 114 925 93 l 943 114 l 943 -75 m 650 88 l 632 88 l 632 114 l 650 114 l 650 88 m 801 -75 l 778 -75 q 779 -15 779 -79 q 747 47 779 47 q 711 -3 715 47 q 710 -75 710 -39 l 690 -75 l 690 63 l 710 63 l 710 57 q 713 43 710 50 q 747 64 728 64 q 801 26 801 64 l 801 -75 m 650 -75 l 632 -75 l 632 63 l 650 63 l 650 -75 m 607 -74 q 597 -76 603 -76 q 547 -36 579 -76 q 506 19 526 -8 q 472 -26 472 -3 q 475 -44 472 -32 q 478 -61 478 -56 q 475 -75 478 -68 l 453 -75 l 453 114 l 479 114 q 476 64 476 89 q 478 24 476 43 l 572 114 l 603 114 l 528 38 q 607 -74 561 -12 m 936 860 l 936 901 l 635 901 l 639 860 l 936 860 m 936 782 l 936 829 l 635 829 l 635 782 l 936 782 m 936 704 l 936 751 l 635 751 l 639 704 l 936 704 m 917 392 l 722 392 q 767 352 729 383 q 811 321 806 321 q 917 392 829 321 m 925 -6 q 886 47 925 47 q 849 -6 849 47 q 889 -60 849 -60 q 925 -6 925 -60 z "},"M":{"ha":1389,"x_min":286,"x_max":1135,"o":"m 1135 592 l 1093 513 q 894 639 981 551 q 807 568 813 574 q 711 508 754 529 q 663 586 697 525 q 838 700 775 642 q 754 917 768 817 l 715 921 l 715 992 l 1017 992 l 1033 1011 q 1107 958 1082 979 q 1029 826 1090 933 q 944 700 983 746 q 1135 592 1001 650 m 1126 279 q 1053 222 1101 260 q 976 331 1015 276 q 889 431 931 393 q 958 483 913 447 q 1126 279 1083 382 m 706 911 q 661 797 683 854 q 603 689 633 729 q 682 633 610 683 q 633 556 667 607 q 557 615 603 585 q 322 476 413 499 q 290 550 300 518 q 492 660 418 586 q 399 714 456 686 q 379 679 386 694 q 310 711 358 688 l 389 871 l 286 871 l 286 947 l 418 947 q 461 1067 433 988 l 539 1039 q 500 950 526 1008 q 621 949 510 949 q 640 960 628 949 l 706 911 m 789 382 q 707 329 765 363 q 643 447 690 367 q 679 468 647 449 q 713 483 707 483 q 789 382 722 483 m 940 294 q 764 181 940 181 q 732 181 758 181 q 686 179 706 179 q 517 232 517 179 l 517 488 l 594 488 l 607 479 l 594 461 l 594 272 q 772 254 629 254 q 831 263 813 254 q 857 304 849 271 q 872 338 865 338 q 940 317 888 338 l 940 294 m 1039 63 q 1006 -39 1022 13 q 954 -131 985 -99 l 929 -126 l 929 -108 q 968 -75 968 -107 q 921 63 968 -68 l 943 63 q 982 -43 956 26 l 1021 63 l 1039 63 m 917 58 q 912 49 915 57 q 903 40 908 40 q 898 42 899 40 q 893 43 897 43 q 864 -6 868 43 q 864 -75 864 -4 l 846 -75 l 846 63 q 868 47 856 60 q 882 64 888 64 q 900 61 889 64 q 917 58 911 58 m 801 -94 q 779 -119 801 -108 q 742 -131 757 -131 q 688 -87 703 -131 q 717 -103 703 -96 q 754 -111 731 -111 q 782 -81 767 -111 l 779 -60 q 740 -75 754 -75 q 698 -53 714 -75 q 682 -4 682 -31 q 749 64 682 64 q 779 47 771 64 q 782 63 782 50 l 801 63 l 801 -94 m 464 415 q 417 315 442 388 q 379 207 399 261 q 293 239 351 217 q 367 449 342 361 q 464 415 399 438 m 658 -75 l 636 -75 q 636 -15 636 -79 q 606 47 636 47 q 568 -3 574 47 q 567 -75 567 -39 l 549 -75 l 549 63 l 567 63 l 567 57 q 569 43 567 50 q 604 64 585 64 q 658 26 658 64 l 658 -75 m 528 -75 l 501 -75 q 474 -15 493 -54 l 403 -15 q 381 -75 385 -49 l 353 -75 l 425 115 l 451 115 l 528 -75 m 988 919 l 825 919 q 894 761 844 821 q 988 919 951 824 m 607 872 l 469 872 q 429 778 464 858 q 546 722 468 760 q 607 872 578 786 m 782 -6 q 744 47 782 47 q 706 -4 706 47 q 744 -56 706 -56 q 782 -6 782 -56 m 472 4 q 439 92 460 33 q 408 4 428 63 l 472 4 z "},"N":{"ha":1389,"x_min":271,"x_max":1122,"o":"m 1122 739 l 936 739 q 888 599 894 619 q 821 467 857 521 l 1088 304 l 1029 218 q 903 311 979 261 q 768 393 835 351 q 557 269 678 313 q 318 211 482 242 q 294 304 306 254 q 497 340 429 322 q 682 431 603 371 q 599 475 658 449 q 510 504 535 503 q 467 444 481 468 l 389 485 q 524 736 469 607 l 271 736 l 271 825 l 553 825 q 632 1035 611 944 q 733 1006 667 1028 q 683 922 706 982 q 650 828 667 875 l 1122 828 l 1122 739 m 885 -75 l 865 -75 l 865 114 l 885 114 l 885 -75 m 738 88 l 718 88 l 718 114 l 738 114 l 738 88 m 849 58 q 845 49 849 57 q 835 40 842 40 q 830 42 831 40 q 825 43 829 43 q 797 -6 801 43 q 797 -75 797 -4 l 778 -75 l 778 63 q 800 47 788 60 q 815 64 819 64 q 832 61 821 64 q 849 58 843 58 m 738 -75 l 718 -75 l 718 63 l 738 63 l 738 -75 m 682 -46 q 603 -79 654 -79 q 535 -52 561 -79 q 508 18 508 -25 q 608 115 508 115 q 678 60 663 115 q 656 56 665 57 q 599 96 642 96 q 532 18 532 96 q 601 -56 532 -56 q 658 -33 633 -56 l 658 -6 q 647 0 654 -1 q 628 1 639 1 q 611 0 615 0 l 604 0 l 604 19 l 682 19 l 682 -46 m 840 738 l 615 738 l 540 572 q 740 500 646 542 q 840 738 813 608 z "},"O":{"ha":1389,"x_min":290,"x_max":1082,"o":"m 1082 532 q 1054 328 1068 429 q 957 183 1024 183 l 801 183 l 801 254 q 957 285 929 254 q 988 472 989 321 l 722 472 l 722 456 q 576 244 726 344 q 318 156 439 156 q 290 238 308 182 q 507 297 411 242 q 639 469 618 361 l 331 469 l 331 531 l 647 531 q 658 631 660 561 l 458 631 q 451 596 446 621 l 378 596 l 378 1022 l 1024 1022 l 1024 607 l 944 607 l 944 631 l 742 631 q 729 532 729 592 l 1082 532 m 919 63 q 888 -39 904 13 q 836 -131 865 -99 l 810 -126 l 810 -108 q 849 -75 849 -107 q 801 63 849 -68 l 825 63 q 863 -43 836 26 l 901 63 l 919 63 m 782 -6 q 719 -79 782 -79 q 673 -58 692 -79 q 654 -8 654 -37 q 719 64 654 64 q 782 -6 782 64 m 635 -19 q 619 -58 635 -40 q 585 -75 604 -75 l 493 -75 l 493 115 l 572 115 q 610 101 593 115 q 626 68 626 88 q 603 26 626 42 q 635 -19 635 8 m 943 861 l 943 964 l 743 964 l 743 861 l 943 861 m 943 690 l 943 801 l 743 801 l 743 690 l 943 690 m 663 864 l 663 964 l 454 964 l 454 864 l 663 864 m 663 693 l 663 801 l 454 801 l 454 693 l 663 693 m 761 -6 q 750 31 761 14 q 719 47 739 47 q 678 -6 678 47 q 719 -60 678 -60 q 761 -6 761 -60 m 603 61 q 595 79 603 68 q 581 90 588 90 l 517 90 l 517 36 l 586 36 q 603 61 603 51 m 611 -19 q 602 0 611 -11 q 585 11 593 11 l 517 11 l 517 -51 l 589 -51 q 603 -40 596 -51 q 611 -19 611 -28 z "},"P":{"ha":1389,"x_min":211,"x_max":1182,"o":"m 1058 463 q 950 214 1057 214 l 778 214 q 767 301 772 247 q 915 310 885 301 q 967 368 958 321 q 972 521 972 394 l 972 750 l 725 750 l 726 722 q 624 393 732 553 q 350 186 513 229 l 306 281 q 544 460 451 317 q 631 749 631 593 l 354 749 l 354 832 l 633 832 l 633 1026 l 707 1029 q 742 1026 735 1029 l 725 1000 l 725 835 l 1058 835 l 1058 463 m 1182 -75 l 1160 -75 q 1160 -15 1160 -79 q 1129 47 1160 47 q 1092 -3 1097 47 q 1090 -75 1090 -39 l 1072 -75 l 1072 114 l 1094 114 q 1092 79 1092 97 q 1093 47 1092 63 q 1135 64 1110 64 q 1182 22 1182 64 l 1182 -75 m 1047 -75 q 1039 -77 1044 -75 q 1029 -79 1033 -79 q 1000 -62 1017 -79 l 1000 40 q 981 54 992 43 q 997 64 985 64 q 1001 89 1000 67 q 1019 107 1003 106 l 1019 67 q 1043 63 1026 63 l 1043 44 l 1019 44 l 1019 -44 q 1047 -75 1032 -53 m 956 -94 q 934 -119 956 -108 q 897 -131 913 -131 q 842 -87 857 -131 q 874 -106 857 -96 q 908 -111 885 -111 q 936 -81 922 -111 l 933 -60 q 894 -75 910 -75 q 853 -53 869 -75 q 838 -4 838 -31 q 903 64 838 64 q 935 47 926 64 q 938 63 938 50 l 956 63 l 956 -94 m 813 -75 l 790 -75 q 792 -15 792 -79 q 760 47 792 47 q 722 -3 728 47 q 721 -75 722 -39 l 703 -75 l 703 63 l 721 63 l 721 57 q 724 43 721 50 q 760 64 739 64 q 813 26 813 64 l 813 -75 m 674 -11 l 568 -15 q 568 -22 568 -18 q 613 -60 568 -60 q 647 -32 638 -60 l 669 -32 q 651 -64 671 -49 q 613 -79 631 -79 q 563 -58 583 -79 q 543 -8 543 -37 q 608 64 543 64 q 674 -11 669 64 m 539 58 q 535 49 539 57 q 525 40 532 40 q 520 42 521 40 q 515 43 519 43 q 488 -6 492 43 q 488 -75 488 -4 l 469 -75 l 469 63 q 490 47 478 60 q 506 64 510 64 q 523 61 511 64 q 539 58 535 58 m 444 -75 q 436 -77 442 -75 q 426 -79 431 -79 q 397 -62 414 -79 l 397 40 q 376 54 389 43 q 394 64 382 64 q 399 89 397 67 q 417 107 400 106 l 417 67 q 440 63 424 63 l 440 44 l 417 44 l 417 -44 q 444 -75 429 -53 m 361 -22 q 338 -63 361 -47 q 290 -79 315 -79 q 236 -60 260 -79 q 211 -12 213 -42 l 233 -12 q 283 -56 243 -56 q 338 -24 338 -56 q 278 17 338 4 q 218 64 218 29 q 286 115 218 115 q 357 60 349 115 l 335 60 q 314 84 329 72 q 286 96 299 96 q 242 65 242 96 q 301 31 242 42 q 361 -22 361 19 m 936 -6 q 899 47 936 47 q 861 -4 861 47 q 899 -56 861 -56 q 936 -6 936 -56 m 650 8 q 611 47 635 47 q 583 35 590 47 q 568 8 575 22 l 650 8 z "},"Q":{"ha":1389,"x_min":203,"x_max":1197,"o":"m 1071 453 q 1057 348 1064 432 q 1035 226 1050 264 q 957 171 1011 171 l 826 171 q 814 246 821 188 l 876 244 q 967 269 946 244 q 989 361 989 293 l 988 389 l 718 389 q 564 222 717 293 q 326 163 435 163 q 306 233 321 190 q 490 268 444 251 q 631 386 581 301 l 322 386 l 322 451 l 640 451 q 651 506 653 486 l 651 518 l 361 518 l 361 832 l 746 832 q 519 897 679 856 l 561 949 q 724 917 665 933 l 842 963 l 350 963 l 350 1024 l 946 1024 l 965 1039 q 1039 961 1011 1004 l 1033 963 q 917 932 996 963 q 801 886 860 910 l 825 871 l 797 832 l 1024 832 l 1024 519 l 733 519 q 722 453 721 490 l 1071 453 m 1197 -11 l 1092 -15 l 1092 -22 q 1136 -60 1092 -60 q 1171 -32 1163 -60 l 1193 -32 q 1174 -64 1194 -49 q 1136 -79 1154 -79 q 1087 -58 1107 -79 q 1067 -8 1067 -37 q 1133 64 1067 64 q 1197 -11 1194 64 m 1039 -94 q 1017 -119 1039 -108 q 981 -131 996 -131 q 925 -87 940 -131 q 955 -103 940 -96 q 992 -111 969 -111 q 1019 -81 1006 -111 l 1017 -60 q 978 -75 993 -75 q 937 -53 953 -75 q 921 -4 921 -31 q 986 64 921 64 q 1018 47 1010 64 q 1021 63 1022 51 l 1039 63 l 1039 -94 m 900 -75 l 878 -75 q 871 -60 876 -67 q 824 -79 844 -79 q 778 -40 778 -79 q 825 2 778 -4 q 872 22 872 8 q 839 47 872 47 q 804 21 811 47 q 782 25 797 22 q 842 64 792 64 q 892 39 881 64 q 896 -17 897 24 q 900 -75 894 -58 m 765 58 q 762 49 765 57 q 751 40 758 40 q 747 42 749 40 q 742 43 746 43 q 714 -7 718 43 q 714 -75 714 -7 l 694 -75 l 694 63 q 717 47 704 60 q 732 64 733 64 q 749 61 738 64 q 765 58 760 58 m 656 -75 l 635 -75 l 636 -68 q 633 -60 636 -62 q 592 -79 614 -79 q 564 -69 581 -79 q 547 -49 547 -58 l 547 63 l 567 63 q 565 40 567 56 q 565 17 565 25 q 597 -60 565 -60 q 638 -1 638 -60 q 636 26 638 8 q 635 53 635 43 q 636 63 635 58 l 656 63 l 656 -75 m 515 -6 q 454 -79 515 -79 q 408 -58 426 -79 q 389 -8 389 -36 q 454 64 389 64 q 515 -6 515 64 m 369 -22 q 340 -60 369 -42 q 290 -79 311 -79 q 226 -50 250 -79 q 203 19 203 -21 q 227 88 203 61 q 292 115 251 115 q 365 65 344 115 l 347 56 q 323 83 335 69 q 290 96 311 96 q 226 19 226 96 q 243 -33 226 -11 q 290 -56 260 -56 q 346 -8 340 -56 q 369 -22 369 -14 m 947 708 l 947 767 l 731 767 l 731 708 l 947 708 m 947 583 l 947 644 l 731 644 l 731 583 l 947 583 m 650 707 l 650 769 l 440 769 l 440 707 l 650 707 m 1174 8 q 1135 47 1160 47 q 1107 35 1115 47 q 1092 8 1099 22 l 1174 8 m 650 583 l 650 646 l 440 646 l 440 583 l 650 583 m 1019 -6 q 982 47 1019 47 q 944 -4 944 47 q 982 -56 944 -56 q 1019 -6 1019 -56 m 872 -35 l 872 -8 q 833 -15 854 -11 q 801 -28 813 -18 l 801 -47 q 831 -60 817 -60 q 872 -35 872 -60 m 496 -6 q 484 30 496 13 q 454 47 472 47 q 413 -6 413 47 q 454 -60 413 -60 q 496 -6 496 -60 z "},"R":{"ha":1389,"x_min":250,"x_max":1138,"o":"m 1090 935 l 733 935 l 733 871 l 1026 871 l 1026 810 l 365 810 l 365 871 l 656 871 l 656 935 l 303 935 l 303 996 l 653 996 l 653 1054 q 749 1050 738 1054 l 733 1032 l 733 997 l 1090 997 l 1090 935 m 1138 449 l 250 449 l 250 519 l 546 522 q 513 583 536 554 l 413 583 l 413 765 l 979 765 l 979 583 l 876 583 q 840 522 863 564 l 1138 522 l 1138 449 m 996 175 l 921 175 l 921 194 l 475 194 q 471 167 471 186 l 397 167 l 397 404 l 996 404 l 996 175 m 900 63 q 868 -39 883 13 q 815 -131 846 -99 l 790 -126 l 790 -108 q 829 -75 829 -107 q 782 63 829 -68 l 804 63 q 843 -43 817 26 l 882 63 l 900 63 m 758 -6 q 696 -79 758 -79 q 649 -58 668 -79 q 631 -8 631 -37 q 696 64 631 64 q 758 -6 758 64 m 603 -35 q 586 -67 603 -54 q 550 -79 569 -79 q 518 -67 536 -79 q 500 -40 500 -54 q 504 -21 500 -36 l 524 -21 l 522 -26 q 551 -56 521 -56 q 579 -25 579 -56 l 579 114 l 603 114 l 603 -35 m 915 647 l 915 701 l 476 701 l 476 647 l 915 647 m 789 582 l 596 582 q 628 519 606 561 l 757 519 q 789 582 779 557 m 919 258 l 919 340 l 472 340 l 472 258 l 919 258 m 738 -6 q 726 31 738 14 q 696 47 715 47 q 654 -6 654 47 q 696 -60 654 -60 q 738 -6 738 -60 z "},"S":{"ha":1389,"x_min":297,"x_max":1135,"o":"m 1135 729 l 1114 667 l 1093 667 q 999 701 1068 667 q 907 754 944 729 q 719 667 769 667 q 699 707 713 686 l 383 707 l 381 671 l 317 671 l 317 1031 l 697 1031 l 697 982 l 571 982 l 571 942 l 693 942 l 693 804 l 571 804 l 571 754 l 701 754 l 704 742 q 853 804 797 760 q 804 894 829 849 q 739 961 771 954 l 739 1019 l 1029 1019 l 1042 1035 q 1107 982 1072 1017 q 1038 890 1085 957 q 964 800 997 829 q 1046 760 989 778 q 1135 729 1119 736 m 1103 238 q 1082 163 1097 211 l 1054 163 q 793 251 967 163 q 829 307 806 269 l 429 307 l 429 654 l 971 654 l 971 307 l 865 307 q 1103 238 915 274 m 1047 -75 q 1040 -77 1046 -75 q 1029 -79 1035 -79 q 1000 -62 1017 -79 l 1000 40 q 978 56 992 44 q 963 42 975 51 q 926 -10 929 28 q 928 -75 928 -42 l 910 -75 l 910 63 q 931 47 918 60 q 947 65 939 65 q 964 63 953 65 q 981 61 975 61 q 1000 63 990 61 q 1002 91 1001 76 q 1019 107 1003 106 l 1019 67 q 1043 63 1026 63 l 1043 44 l 1019 44 l 1019 -44 q 1047 -75 1032 -53 m 876 -75 l 854 -75 q 847 -60 853 -67 q 800 -79 821 -79 q 754 -40 754 -79 q 801 2 754 -4 q 849 22 849 8 q 815 47 849 47 q 781 21 786 47 q 769 22 776 21 q 758 25 761 24 q 817 64 768 64 q 872 4 872 64 q 872 -18 872 -3 q 871 -40 871 -32 q 876 -75 871 -61 m 622 235 q 476 189 549 213 q 326 158 386 161 q 297 238 317 185 q 565 306 454 257 q 622 235 586 283 m 726 -75 l 707 -75 q 707 -21 707 -78 q 681 47 707 47 q 643 -24 643 47 q 644 -50 643 -33 q 646 -75 646 -67 l 624 -75 l 624 29 q 599 47 624 47 q 563 -1 569 47 q 563 -72 563 -4 l 563 -75 l 544 -75 l 544 63 l 563 63 l 563 57 q 565 47 563 51 q 596 64 583 64 q 642 43 631 64 q 653 53 642 43 q 686 64 664 64 q 726 38 726 64 l 726 -75 m 508 -22 q 485 -63 508 -47 q 436 -79 463 -79 q 383 -60 407 -79 q 357 -12 358 -42 l 381 -12 q 397 -44 379 -32 q 436 -56 415 -56 q 483 -24 483 -56 q 424 15 483 0 q 365 64 365 29 q 432 115 365 115 q 503 60 494 115 l 481 60 q 432 96 467 96 q 389 65 389 96 q 449 30 389 40 q 508 -22 508 19 m 1000 956 l 842 960 q 911 844 854 897 q 1000 956 968 900 m 503 940 l 503 983 l 382 983 l 382 940 l 503 940 m 638 850 l 638 892 l 382 892 l 382 850 l 638 850 m 908 558 l 908 604 l 493 604 l 493 558 l 908 558 m 503 754 l 503 804 l 382 804 l 382 754 l 503 754 m 908 457 l 908 507 l 493 507 l 493 457 l 908 457 m 908 356 l 908 406 l 494 406 l 494 356 l 908 356 m 849 -35 l 849 -8 q 811 -14 831 -11 q 778 -28 788 -18 l 778 -47 q 807 -60 793 -60 q 849 -35 849 -60 z "},"T":{"ha":1389,"x_min":306,"x_max":1135,"o":"m 1135 261 l 1099 175 l 1082 175 q 824 299 971 175 q 647 528 681 418 l 485 528 l 489 288 l 757 340 q 769 275 767 301 q 364 178 507 199 l 347 154 q 306 257 329 185 q 410 276 338 261 l 410 951 l 649 951 l 649 1056 l 744 1056 l 758 1046 l 742 1025 l 742 954 l 979 954 l 979 528 q 1024 556 999 538 q 1061 528 1053 533 q 1090 493 1083 508 q 976 436 1042 476 q 869 367 922 401 q 996 299 918 326 q 1135 261 1032 286 m 999 -75 l 981 -75 l 981 -68 q 978 -60 981 -62 q 940 -79 963 -79 q 897 -56 914 -79 q 881 -6 881 -33 q 949 64 881 64 q 978 47 967 64 q 981 75 981 60 q 976 114 981 93 l 999 114 l 999 -75 m 861 -6 q 800 -79 861 -79 q 752 -58 771 -79 q 733 -8 733 -37 q 800 64 733 64 q 861 -6 861 64 m 714 -6 q 653 -79 714 -79 q 606 -58 624 -79 q 588 -8 588 -37 q 653 64 588 64 q 714 -6 714 64 m 563 -46 q 483 -79 535 -79 q 415 -52 442 -79 q 389 18 389 -25 q 490 115 389 115 q 558 60 543 115 q 536 56 546 57 q 481 96 522 96 q 413 18 413 96 q 482 -56 413 -56 q 540 -33 515 -56 l 540 -6 q 527 0 535 -1 q 508 1 519 1 q 492 0 496 0 l 485 0 l 485 19 l 563 19 l 563 -46 m 900 778 l 900 876 l 485 876 l 485 778 l 900 778 m 900 604 l 900 701 l 485 701 l 485 604 l 900 604 m 976 526 l 731 526 q 767 467 754 485 q 811 413 789 432 l 976 526 m 981 -6 q 942 47 981 47 q 904 -6 904 47 q 944 -60 904 -60 q 981 -6 981 -60 m 842 -6 q 829 30 842 13 q 800 47 817 47 q 758 -6 758 47 q 800 -60 758 -60 q 842 -6 842 -60 m 694 -6 q 683 30 694 13 q 653 47 671 47 q 611 -6 611 47 q 653 -60 611 -60 q 694 -6 694 -60 z "},"U":{"ha":1389,"x_min":269,"x_max":1147,"o":"m 1131 517 l 278 517 l 278 581 l 564 581 l 564 657 l 369 657 l 369 872 l 558 872 q 563 908 563 890 q 558 949 563 928 l 310 949 l 310 1007 l 1094 1007 l 1094 949 l 828 949 q 821 911 821 911 q 828 872 821 911 l 1026 872 l 1026 657 l 821 657 l 821 581 l 1131 581 l 1131 517 m 1147 279 q 1072 218 1140 274 q 932 407 1036 301 q 994 460 944 419 q 1147 279 1071 399 m 797 371 q 724 329 763 343 q 654 433 713 360 q 682 458 657 440 q 717 481 699 469 q 797 371 772 426 m 964 307 q 943 233 964 272 q 886 190 918 190 l 565 190 q 526 206 547 190 q 504 240 504 222 l 504 472 l 581 472 q 599 464 592 472 q 583 438 599 453 l 583 288 q 663 263 583 263 q 875 281 871 263 l 894 349 q 964 328 901 349 l 964 307 m 913 -75 l 893 -75 l 893 -68 q 890 -60 893 -62 q 853 -79 876 -79 q 810 -56 826 -79 q 793 -6 793 -33 q 861 64 793 64 q 890 47 879 64 q 893 75 893 60 q 889 114 893 93 l 913 114 l 913 -75 m 774 -75 l 750 -75 q 743 -60 750 -67 q 696 -79 718 -79 q 650 -40 650 -79 q 698 2 650 -4 q 746 22 746 8 q 713 47 746 47 q 678 21 683 47 q 666 22 674 21 q 656 25 658 24 q 714 64 664 64 q 769 6 769 64 q 769 -17 769 -1 q 768 -40 768 -32 q 774 -75 768 -61 m 460 407 q 396 307 431 372 q 340 203 344 210 q 269 251 317 219 q 374 444 353 372 l 460 407 m 626 -19 q 612 -58 626 -40 q 576 -75 597 -75 l 485 -75 l 485 115 l 565 115 q 602 101 585 115 q 619 68 619 88 q 594 26 619 43 q 626 -19 626 8 m 951 725 l 951 811 l 824 811 l 824 725 l 951 725 m 746 875 l 746 946 l 642 946 l 642 875 l 746 875 m 746 725 l 746 811 l 642 811 l 642 725 l 746 725 m 746 579 l 746 658 l 639 658 l 639 579 l 746 579 m 563 722 l 563 811 l 449 811 l 449 722 l 563 722 m 893 -6 q 856 47 893 47 q 817 -6 817 47 q 857 -60 817 -60 q 893 -6 893 -60 m 746 -35 l 746 -8 q 708 -14 726 -11 q 675 -28 685 -18 l 675 -47 q 704 -60 690 -60 q 746 -35 746 -60 m 594 61 q 588 80 594 69 q 572 90 581 90 l 508 90 l 508 36 l 578 36 q 594 61 594 51 m 603 -19 q 595 1 603 -10 q 576 11 588 11 l 508 11 l 508 -51 l 581 -51 q 596 -40 589 -51 q 603 -19 603 -28 z "},"V":{"ha":1389,"x_min":278,"x_max":1122,"o":"m 1122 226 l 278 226 l 278 301 l 678 301 l 678 526 l 421 526 l 421 603 l 678 603 l 678 781 l 479 781 q 339 567 425 661 q 282 629 306 600 q 444 983 428 786 q 535 963 486 979 q 504 853 503 886 l 679 853 l 679 1043 l 769 1043 l 757 1025 l 757 854 l 1075 854 l 1075 782 l 758 782 l 758 604 l 1026 604 l 1026 528 l 758 528 l 758 303 l 1122 303 l 1122 226 m 904 -11 l 799 -15 l 799 -22 q 843 -60 799 -60 q 878 -32 868 -60 l 900 -32 q 881 -64 901 -49 q 843 -79 860 -79 q 794 -58 814 -79 q 774 -8 774 -37 q 839 64 774 64 q 904 -11 900 64 m 669 88 l 651 88 l 651 114 l 669 114 l 669 88 m 774 115 q 769 96 771 108 q 758 96 769 96 q 738 74 736 96 l 738 67 q 761 63 744 63 l 761 44 l 739 44 l 739 -75 l 714 -75 l 714 40 q 694 44 710 44 l 694 63 l 711 63 q 717 93 713 65 q 732 115 721 115 l 774 115 m 669 -75 l 651 -75 l 651 63 l 669 63 l 669 -75 m 622 -75 l 504 -75 l 504 114 l 528 114 l 528 -50 l 622 -50 l 622 -75 m 881 8 q 842 47 867 47 q 814 35 822 47 q 797 8 806 22 l 881 8 z "},"W":{"ha":1389,"x_min":269,"x_max":1140,"o":"m 1140 394 q 1114 261 1139 299 q 994 213 1082 213 l 881 213 q 758 260 758 213 l 758 913 l 531 913 q 503 783 524 869 l 701 783 l 701 739 q 607 406 701 567 q 346 186 503 232 q 310 265 333 213 q 547 454 451 306 q 418 567 507 496 q 319 460 388 531 l 269 522 q 394 697 342 572 q 444 911 444 815 l 271 911 l 271 988 l 1110 988 l 1110 913 l 836 913 l 836 646 q 1022 782 949 711 q 1088 697 1046 756 q 957 632 1033 679 q 833 557 844 563 l 833 311 q 890 288 833 288 q 1018 297 1004 288 q 1056 421 1043 313 l 1140 394 m 1035 -75 l 1013 -75 q 1014 -15 1014 -82 q 982 47 1014 47 q 944 -3 950 47 q 943 -75 944 -39 l 925 -75 l 925 114 l 947 114 q 944 79 944 97 q 947 47 944 63 q 988 64 963 64 q 1035 22 1035 64 l 1035 -75 m 900 -75 q 892 -77 897 -75 q 883 -79 886 -79 q 853 -62 871 -79 l 853 40 q 833 54 846 43 q 850 64 838 64 q 856 89 854 67 q 872 107 856 106 l 872 67 q 896 63 879 63 l 896 44 l 872 44 l 872 -44 q 900 -75 885 -53 m 817 -75 l 794 -75 q 788 -60 794 -67 q 740 -79 763 -79 q 694 -40 694 -79 q 742 2 694 -4 q 789 22 789 8 q 756 47 789 47 q 721 21 726 47 q 709 22 717 21 q 699 25 701 24 q 758 64 708 64 q 814 4 814 64 q 813 -18 814 -3 q 813 -40 813 -32 q 817 -75 813 -61 m 674 -11 l 568 -15 q 568 -22 568 -18 q 613 -60 568 -60 q 647 -32 638 -60 l 669 -32 q 651 -64 671 -49 q 613 -79 631 -79 q 563 -58 583 -79 q 543 -8 543 -37 q 608 64 543 64 q 674 -11 669 64 m 524 19 q 505 -44 524 -14 q 454 -75 486 -75 l 369 -75 l 369 115 l 446 115 q 506 85 483 115 q 524 19 524 60 m 618 688 l 618 718 l 485 718 q 453 628 471 668 q 583 540 496 599 q 618 688 618 668 m 789 -35 l 789 -8 q 750 -15 771 -11 q 718 -28 729 -18 l 718 -47 q 747 -60 733 -60 q 789 -35 789 -60 m 650 8 q 611 47 635 47 q 583 35 590 47 q 568 8 575 22 l 650 8 m 500 19 q 488 65 500 40 q 458 90 475 90 l 393 90 l 393 -51 l 458 -51 q 489 -24 475 -51 q 500 19 500 0 z "},"X":{"ha":1389,"x_min":271,"x_max":1131,"o":"m 1108 583 l 817 583 q 817 493 811 542 l 739 493 l 739 1050 l 821 1050 l 821 1044 q 813 1026 819 1035 l 813 954 l 1081 954 l 1081 888 l 813 888 l 813 807 l 1035 807 l 1035 743 l 813 743 l 813 649 l 1108 649 l 1108 583 m 1131 292 q 1069 233 1110 272 q 908 414 1017 296 q 967 472 911 417 q 1131 292 1028 411 m 656 1047 q 644 942 647 1038 q 644 760 643 875 q 647 636 647 618 q 551 515 647 581 q 401 449 465 458 q 374 518 392 472 q 560 621 485 544 q 550 622 560 622 q 419 601 518 622 q 300 564 314 578 q 271 650 286 576 q 572 686 431 661 l 572 740 l 350 740 l 350 807 l 572 807 l 572 888 l 299 888 l 299 950 l 569 950 l 569 1051 l 656 1047 m 801 367 q 736 321 796 361 q 650 442 708 363 q 678 466 656 449 q 708 483 701 483 q 757 432 719 483 q 801 367 786 393 m 949 313 q 921 233 935 272 q 858 186 903 186 l 565 186 q 525 201 546 186 q 504 236 504 217 l 504 443 q 565 446 542 446 q 594 443 590 446 q 583 424 583 433 l 583 276 l 597 261 l 826 261 q 856 290 844 261 q 869 333 863 311 l 886 333 q 949 313 896 333 m 913 -75 l 893 -75 l 893 -68 q 890 -60 893 -62 q 853 -79 876 -79 q 810 -56 826 -79 q 793 -6 793 -33 q 861 64 793 64 q 890 47 879 64 q 893 75 893 60 q 889 114 893 93 l 913 114 l 913 -75 m 774 -75 l 750 -75 q 743 -60 750 -67 q 696 -79 718 -79 q 650 -40 650 -79 q 698 2 650 -4 q 746 22 746 8 q 713 47 746 47 q 678 21 683 47 q 666 22 674 21 q 656 25 658 24 q 714 64 664 64 q 769 6 769 64 q 769 -17 769 -1 q 768 -40 768 -32 q 774 -75 768 -61 m 449 403 q 399 306 429 376 q 343 210 369 242 q 278 243 311 231 q 326 336 283 257 q 367 432 356 392 q 449 403 393 424 m 626 -22 q 604 -63 626 -47 q 556 -79 582 -79 q 502 -60 526 -79 q 476 -12 478 -42 l 500 -12 q 518 -44 497 -32 q 556 -56 535 -56 q 603 -24 603 -56 q 543 13 603 -1 q 483 64 483 28 q 551 115 483 115 q 622 60 614 115 l 600 60 q 551 96 585 96 q 508 65 508 96 q 567 32 508 47 q 626 -22 626 17 m 893 -6 q 856 47 893 47 q 817 -6 817 47 q 857 -60 817 -60 q 893 -6 893 -60 m 746 -35 l 746 -8 q 708 -14 726 -11 q 675 -28 685 -18 l 675 -47 q 704 -60 690 -60 q 746 -35 746 -60 z "},"Y":{"ha":1389,"x_min":250,"x_max":1146,"o":"m 1146 663 l 1056 664 l 999 663 l 999 171 l 925 171 l 925 663 l 865 664 l 761 663 l 763 575 q 739 354 763 436 q 617 171 706 244 q 551 236 614 174 q 642 342 601 268 q 683 475 683 417 l 683 999 q 769 972 769 972 q 915 994 831 972 q 1058 1035 986 1015 q 1115 946 1086 996 q 1061 949 1075 949 q 910 926 1000 949 q 761 889 767 890 l 761 735 l 1146 735 l 1146 663 m 650 554 q 622 468 640 526 q 494 540 569 499 l 494 171 l 414 171 l 414 556 q 283 444 372 515 l 250 522 q 517 815 471 696 l 282 815 l 282 888 l 365 888 l 418 889 l 418 1054 l 507 1054 l 492 1033 l 492 889 l 581 889 l 593 900 l 639 856 l 492 639 q 568 592 519 614 q 650 554 610 572 m 964 63 q 931 -39 947 13 q 879 -131 910 -99 l 854 -126 l 854 -108 q 893 -75 893 -108 q 846 63 893 -67 l 868 63 q 907 -43 879 26 l 944 63 l 964 63 m 825 -75 l 801 -75 q 796 -60 801 -67 q 747 -79 769 -79 q 703 -40 703 -79 q 750 2 703 -4 q 797 22 797 8 q 764 47 797 47 q 729 21 735 47 q 707 25 722 22 q 765 64 714 64 q 815 39 804 64 q 820 -17 822 24 q 825 -75 818 -58 m 694 58 q 690 49 693 57 q 681 40 686 40 q 676 42 676 40 q 671 43 675 43 q 642 -7 646 43 q 642 -75 642 -3 l 624 -75 l 624 63 q 646 47 633 60 q 660 64 663 64 q 677 61 665 64 q 694 58 689 58 m 588 57 q 549 6 588 15 q 475 0 536 1 q 472 -36 472 -12 q 475 -75 472 -58 l 449 -75 l 449 115 l 533 115 q 572 98 557 115 q 588 57 588 81 m 797 -35 l 797 -8 q 760 -14 778 -11 q 726 -28 736 -18 l 726 -47 q 756 -60 742 -60 q 783 -52 768 -60 q 797 -35 797 -44 m 564 60 q 542 90 564 90 l 472 90 l 472 24 l 538 24 q 564 60 564 24 z "},"Z":{"ha":1389,"x_min":250,"x_max":1114,"o":"m 1114 393 l 1036 393 l 1036 419 l 929 419 l 929 167 l 850 167 l 850 419 l 744 419 l 742 385 l 665 385 l 665 892 l 849 892 l 849 1039 l 940 1039 l 928 1021 l 928 894 l 1114 894 l 1114 393 m 650 839 q 572 742 624 821 q 500 629 536 686 q 639 565 547 610 l 601 481 q 490 551 542 535 l 490 167 l 410 167 l 410 532 q 283 429 357 468 q 250 503 276 451 q 413 639 333 553 q 528 815 499 733 l 278 815 l 278 888 l 413 888 l 413 1063 l 496 1063 l 488 1038 l 488 896 q 533 889 518 889 q 574 908 560 889 q 615 876 594 893 q 650 839 642 856 m 928 -75 l 910 -75 l 910 -68 q 907 -60 910 -62 q 869 -79 892 -79 q 826 -56 843 -79 q 810 -6 810 -33 q 876 64 810 64 q 906 47 894 64 q 908 75 908 60 q 906 114 908 93 l 928 114 l 928 -75 m 789 -6 q 728 -79 789 -79 q 681 -58 700 -79 q 663 -8 663 -37 q 728 64 663 64 q 789 -6 789 64 m 639 -46 q 560 -79 611 -79 q 490 -52 517 -79 q 464 18 464 -25 q 564 115 464 115 q 635 60 618 115 q 611 56 621 57 q 556 96 597 96 q 488 18 488 96 q 557 -56 488 -56 q 615 -33 590 -56 l 615 -6 q 602 0 610 -1 q 583 1 594 1 q 568 0 571 0 l 560 0 l 560 19 l 639 19 l 639 -46 m 1035 694 l 1035 821 l 929 821 l 929 694 l 1035 694 m 849 694 l 849 821 l 743 821 l 743 694 l 849 694 m 1035 496 l 1035 622 l 929 622 l 929 496 l 1035 496 m 849 496 l 849 622 l 743 622 l 743 496 l 849 496 m 908 -6 q 871 47 908 47 q 833 -6 833 47 q 872 -60 833 -60 q 908 -6 908 -60 m 769 -6 q 758 30 769 13 q 728 47 746 47 q 686 -6 686 47 q 728 -60 686 -60 q 769 -6 769 -60 z "},"[":{"ha":1389,"x_min":263,"x_max":1139,"o":"m 1139 379 l 1097 290 q 894 437 999 335 q 736 639 789 539 l 736 176 l 651 176 l 651 626 q 504 432 603 532 q 311 278 406 332 l 263 360 q 490 536 375 414 q 639 779 613 667 l 299 779 l 299 864 l 654 864 l 654 1035 l 746 1035 l 733 1017 l 733 867 l 1103 867 l 1103 782 l 750 782 q 903 544 775 669 q 1139 379 1021 429 m 960 -11 l 854 -15 q 854 -22 854 -18 q 899 -60 854 -60 q 933 -32 924 -60 l 956 -32 q 936 -64 957 -49 q 899 -79 915 -79 q 849 -58 869 -79 q 829 -8 829 -37 q 894 64 829 64 q 960 -11 956 64 m 813 -11 l 707 -15 q 707 -22 707 -18 q 751 -60 707 -60 q 786 -32 776 -60 l 808 -32 q 790 -64 810 -49 q 751 -79 769 -79 q 702 -58 722 -79 q 682 -8 682 -37 q 747 64 682 64 q 813 -11 808 64 m 678 58 q 674 49 678 57 q 664 40 671 40 q 659 42 660 40 q 654 43 658 43 q 626 -6 631 43 q 626 -75 626 -4 l 608 -75 l 608 63 q 629 47 617 60 q 644 64 649 64 q 662 61 650 64 q 678 58 674 58 m 579 92 l 517 92 l 517 -75 l 493 -75 l 493 90 q 433 90 464 93 l 433 114 l 579 114 l 579 92 m 936 8 q 897 47 921 47 q 869 35 876 47 q 853 8 861 22 l 936 8 m 789 8 q 750 47 775 47 q 722 35 729 47 q 707 8 714 22 l 789 8 z "},"\\":{"ha":1389,"x_min":294,"x_max":1126,"o":"m 1126 243 q 1057 194 1111 231 q 1025 235 1042 204 q 997 282 1004 274 q 639 243 858 269 q 332 190 339 207 q 308 236 321 197 q 294 289 301 263 l 656 325 l 656 531 l 438 531 q 438 461 435 504 l 361 461 l 361 864 l 654 864 l 654 1026 l 746 1026 l 733 1008 l 733 867 l 1026 867 l 1026 532 l 735 532 l 735 329 l 746 329 q 949 349 775 328 q 865 454 922 390 l 926 504 q 1126 243 1028 407 m 913 -94 q 890 -119 913 -108 q 853 -131 868 -131 q 799 -87 814 -131 q 829 -106 799 -87 q 865 -111 840 -111 q 893 -81 876 -111 l 890 -60 q 851 -75 867 -75 q 809 -53 825 -75 q 793 -4 793 -31 q 861 64 793 64 q 890 47 879 64 q 893 63 893 50 l 913 63 l 913 -94 m 767 -75 l 746 -75 l 747 -68 q 744 -60 747 -62 q 703 -79 725 -79 q 675 -69 692 -79 q 658 -49 658 -58 l 658 63 l 678 63 q 676 40 678 56 q 675 17 675 25 q 708 -60 675 -60 q 749 -1 749 -60 q 747 25 749 7 q 746 51 746 43 q 747 63 746 60 l 767 63 l 767 -75 m 626 -19 q 612 -58 626 -40 q 576 -75 597 -75 l 485 -75 l 485 115 l 565 115 q 602 101 585 115 q 619 68 619 88 q 594 26 619 43 q 626 -19 626 8 m 947 607 l 947 793 l 735 793 l 735 607 l 947 607 m 654 607 l 654 793 l 439 793 l 439 607 l 654 607 m 893 -6 q 856 47 893 47 q 817 -4 817 47 q 856 -56 817 -56 q 893 -6 893 -56 m 594 61 q 588 80 594 69 q 572 90 581 90 l 508 90 l 508 36 l 578 36 q 594 61 594 51 m 603 -19 q 595 1 603 -10 q 576 11 588 11 l 508 11 l 508 -51 l 581 -51 q 596 -40 589 -51 q 603 -19 603 -28 z "},"]":{"ha":1389,"x_min":319,"x_max":1067,"o":"m 1067 256 q 1051 220 1067 238 q 1017 203 1035 203 l 906 203 l 881 289 l 907 289 l 976 289 l 976 563 l 410 563 l 410 200 l 319 200 l 319 988 l 1067 988 l 1067 256 m 917 -75 l 893 -75 q 893 -65 893 -72 q 893 -40 893 -57 q 894 -15 894 -24 q 863 47 894 47 q 822 -32 822 47 q 824 -52 822 -37 q 825 -75 825 -67 l 806 -75 l 806 63 l 825 63 l 825 57 q 828 43 824 50 q 863 64 843 64 q 917 26 917 64 l 917 -75 m 776 -11 l 672 -15 q 671 -22 671 -18 q 717 -60 671 -60 q 750 -32 742 -60 l 774 -32 q 753 -64 774 -49 q 717 -79 733 -79 q 667 -58 686 -79 q 647 -8 647 -37 q 713 64 647 64 q 776 -11 774 64 m 635 114 q 586 39 610 76 q 560 -47 560 -7 q 563 -75 560 -61 l 540 -75 q 543 -47 543 -61 q 517 38 543 -10 q 468 114 493 76 l 494 114 l 550 28 q 608 114 565 46 l 635 114 m 975 639 l 975 913 l 731 913 l 731 639 l 975 639 m 650 639 l 650 913 l 410 913 l 410 639 l 650 639 m 753 8 q 714 47 740 47 q 686 35 694 47 q 671 8 678 22 l 753 8 z "},"a":{"ha":1389,"x_min":278,"x_max":1110,"o":"m 1110 922 l 864 922 l 864 871 l 1007 871 l 1007 675 l 385 675 l 385 871 l 521 871 l 521 924 l 278 924 l 278 988 l 518 988 q 518 1063 521 1025 l 611 1058 l 599 1040 l 599 989 l 788 989 q 788 1063 792 1024 l 876 1058 l 864 1040 l 864 989 l 1110 989 l 1110 922 m 1110 476 l 1036 476 l 1036 567 l 678 567 q 639 511 657 543 l 890 508 l 918 528 q 988 474 965 497 q 722 244 906 335 q 378 158 549 158 q 353 233 371 183 q 514 247 467 240 q 667 296 604 261 q 601 349 651 315 q 528 385 550 382 q 458 340 478 353 q 382 310 417 318 q 350 376 371 332 q 488 449 415 390 q 592 567 554 503 l 354 567 l 354 468 l 278 468 l 278 631 l 1110 631 l 1110 476 m 1075 -75 l 1056 -75 q 1057 -19 1057 -79 q 1029 47 1057 47 q 992 -24 992 47 q 993 -50 992 -33 q 996 -75 994 -67 l 972 -75 l 972 29 q 949 47 972 47 q 913 -1 918 47 q 913 -72 913 -4 l 911 -75 l 893 -75 l 893 63 l 913 63 l 911 57 q 914 47 911 51 q 953 64 931 64 q 990 43 979 64 q 1003 53 992 43 q 1036 64 1014 64 q 1075 38 1075 64 l 1075 -75 m 861 -75 l 838 -75 q 831 -60 838 -67 q 783 -79 806 -79 q 738 -40 738 -79 q 785 2 738 -4 q 833 22 833 8 q 800 47 833 47 q 765 21 771 47 q 742 25 757 22 q 801 64 750 64 q 851 39 840 64 q 856 -17 858 24 q 861 -75 854 -58 m 718 -11 l 613 -15 l 611 -22 q 657 -60 611 -60 q 692 -32 682 -60 l 714 -32 q 694 -64 714 -49 q 657 -79 674 -79 q 607 -58 626 -79 q 588 -8 588 -37 q 653 64 588 64 q 718 -11 714 64 m 583 58 q 578 49 582 57 q 569 40 575 40 q 565 42 565 40 q 560 43 564 43 q 531 -7 535 43 q 531 -75 531 -3 l 513 -75 l 513 63 q 535 47 522 60 q 549 64 551 64 q 567 61 556 64 q 583 58 578 58 m 481 19 q 462 -44 481 -14 q 410 -75 443 -75 l 326 -75 l 326 115 l 403 115 q 461 85 440 115 q 481 19 481 60 m 932 740 l 932 807 l 815 807 l 815 740 l 932 740 m 789 871 l 789 922 l 600 922 l 600 871 l 789 871 m 749 740 l 749 807 l 642 807 l 642 740 l 749 740 m 575 740 l 575 807 l 463 807 l 463 740 l 575 740 m 861 447 l 606 447 q 579 425 589 447 q 722 354 638 403 q 746 342 743 342 q 807 386 760 342 q 861 447 850 429 m 833 -35 l 833 -8 q 796 -14 814 -11 q 763 -28 772 -18 l 763 -47 q 792 -60 778 -60 q 819 -52 804 -60 q 833 -35 833 -44 m 694 8 q 654 47 681 47 q 626 35 635 47 q 611 8 618 22 l 694 8 m 456 19 q 446 64 456 40 q 414 90 432 90 l 350 90 l 350 -51 l 414 -51 q 444 -24 432 -51 q 456 19 456 0 z "},"b":{"ha":1389,"x_min":282,"x_max":1114,"o":"m 1114 243 l 282 243 l 282 325 l 650 325 l 650 693 l 350 693 l 350 781 l 651 781 l 651 1024 l 753 1019 q 742 993 742 993 l 742 783 l 1043 783 l 1043 694 l 742 694 l 742 326 l 1114 326 l 1114 243 m 1000 -75 l 976 -75 q 978 -15 978 -82 q 946 47 978 47 q 908 -3 914 47 q 908 -75 908 -39 l 889 -75 l 889 114 l 911 114 q 908 79 908 97 q 911 47 908 63 q 953 64 926 64 q 1000 22 1000 64 l 1000 -75 m 864 -75 q 857 -77 863 -75 q 847 -79 851 -79 q 818 -62 835 -79 l 818 40 q 796 56 808 44 q 779 42 793 51 q 744 -10 747 28 q 746 -75 744 -42 l 726 -75 l 726 63 q 749 47 736 60 q 764 65 756 65 q 781 63 769 65 q 797 61 792 61 q 818 63 807 61 q 819 91 818 76 q 836 107 821 106 l 836 67 q 860 63 844 63 l 860 44 l 836 44 l 836 -44 q 864 -75 850 -53 m 694 -75 l 671 -75 q 664 -60 671 -67 q 617 -79 639 -79 q 571 -40 571 -79 q 619 2 571 -4 q 667 22 667 8 q 633 47 667 47 q 599 21 604 47 q 586 22 593 21 q 576 25 579 24 q 635 64 583 64 q 690 4 690 64 q 690 -18 690 -3 q 689 -40 689 -32 q 694 -75 689 -61 m 543 -75 l 406 -75 l 406 114 l 539 114 l 539 90 l 428 90 l 428 38 l 531 38 l 531 10 l 428 10 l 428 -50 l 543 -50 l 543 -75 m 667 -35 l 667 -8 q 629 -14 647 -11 q 596 -28 606 -18 l 596 -47 q 625 -60 610 -60 q 652 -52 638 -60 q 667 -35 667 -44 z "},"c":{"ha":1389,"x_min":242,"x_max":1158,"o":"m 1158 368 q 1142 264 1157 310 q 1079 199 1119 199 q 972 325 1019 199 q 932 507 932 432 l 932 929 l 428 929 q 433 781 428 882 q 438 626 438 679 q 300 186 438 329 q 242 256 269 215 q 319 365 288 299 q 350 490 350 431 l 350 999 l 1007 999 q 1004 921 1007 1008 q 1001 756 1001 833 q 1061 333 1001 385 q 1088 421 1083 342 q 1158 368 1111 406 m 964 268 q 894 218 960 254 l 851 274 q 649 247 804 272 q 471 207 481 219 q 444 254 458 208 q 433 313 432 296 q 474 304 464 304 q 554 308 503 304 q 636 313 613 313 q 638 356 638 319 l 635 468 l 557 468 q 557 406 553 444 l 489 406 l 489 704 l 639 704 l 639 774 q 481 774 618 779 q 461 844 475 797 q 828 872 638 844 q 881 793 881 819 l 881 788 q 856 793 856 793 q 706 778 806 793 l 706 704 l 860 704 l 860 468 l 707 468 l 707 324 q 744 318 724 318 q 819 328 772 318 q 797 365 814 344 q 769 399 771 397 q 832 444 789 419 q 964 268 900 374 m 979 -75 l 961 -75 l 961 -68 q 958 -60 961 -62 q 921 -79 944 -79 q 878 -55 896 -79 q 861 -6 861 -31 q 926 64 861 64 q 958 47 949 64 q 960 75 960 60 q 957 114 960 93 l 979 114 l 979 -75 m 686 88 l 667 88 l 667 114 l 686 114 l 686 88 m 836 -75 l 814 -75 q 815 -15 815 -79 q 783 47 815 47 q 746 -3 751 47 q 746 -75 746 -39 l 726 -75 l 726 63 l 746 63 l 744 57 q 749 43 744 50 q 783 64 764 64 q 836 26 836 64 l 836 -75 m 686 -75 l 667 -75 l 667 63 l 686 63 l 686 -75 m 642 114 l 594 -75 l 568 -75 q 522 88 554 -21 l 475 -75 l 449 -75 l 401 114 l 424 114 l 463 -43 q 508 114 478 10 l 535 114 q 581 -43 550 61 l 619 114 l 642 114 m 793 528 l 793 642 l 707 642 l 707 528 l 793 528 m 638 528 l 638 642 l 556 642 l 556 528 l 638 528 m 960 -6 q 922 47 960 47 q 885 -6 885 47 q 925 -60 885 -60 q 960 -6 960 -60 z "},"d":{"ha":1389,"x_min":282,"x_max":1122,"o":"m 1067 819 q 996 697 1044 785 q 922 575 954 617 q 844 625 874 610 q 974 865 907 708 l 1067 819 m 1122 281 q 1082 182 1106 246 q 854 322 975 214 q 700 536 726 435 q 552 313 665 424 q 326 175 439 203 l 282 264 q 588 490 511 343 q 644 828 644 597 q 644 925 644 858 q 643 1028 643 990 l 696 1031 l 742 1026 l 733 999 l 733 688 q 868 432 733 558 q 1122 281 986 321 m 506 819 q 479 689 497 790 q 443 560 464 607 q 346 592 410 569 q 397 849 403 694 q 506 819 461 836 m 915 -11 l 811 -15 q 810 -22 810 -18 q 856 -60 810 -60 q 889 -32 881 -60 l 913 -32 q 892 -64 913 -49 q 856 -79 872 -79 q 806 -58 825 -79 q 786 -8 786 -37 q 851 64 786 64 q 915 -11 913 64 m 669 88 l 651 88 l 651 114 l 669 114 l 669 88 m 782 58 q 777 49 781 57 q 768 40 774 40 q 763 42 764 40 q 758 43 763 43 q 729 -6 733 43 q 729 -75 729 -4 l 711 -75 l 711 63 q 732 47 721 60 q 747 64 751 64 q 765 61 754 64 q 782 58 776 58 m 669 -75 l 651 -75 l 651 63 l 669 63 l 669 -75 m 618 90 l 519 90 l 519 33 l 607 33 l 607 13 l 521 13 l 521 -75 l 496 -75 l 496 114 l 618 114 l 618 90 m 892 8 q 853 47 879 47 q 825 35 833 47 q 810 8 817 22 l 892 8 z "},"e":{"ha":1389,"x_min":250,"x_max":1143,"o":"m 1143 328 l 1097 238 q 749 678 876 385 q 751 570 749 661 q 754 421 754 479 q 708 183 754 183 l 588 183 l 576 253 l 667 253 l 667 1043 l 757 1043 l 746 1025 l 746 878 q 771 794 746 853 q 811 714 793 742 q 915 801 854 738 q 1010 904 963 853 q 1053 863 1031 883 q 1083 814 1081 833 q 963 738 1031 793 q 849 649 853 650 q 975 469 883 565 q 1143 328 1056 383 m 1056 58 q 1051 49 1054 57 q 1042 40 1047 40 q 1037 42 1038 40 q 1032 43 1036 43 q 1003 -6 1007 43 q 1003 -75 1003 -4 l 985 -75 l 985 63 q 1007 47 994 60 q 1021 64 1026 64 q 1039 61 1028 64 q 1056 58 1050 58 m 631 796 q 515 483 567 579 q 292 238 435 331 l 250 315 q 528 747 467 463 l 303 747 l 303 824 l 529 824 l 549 853 q 631 796 588 833 m 956 -11 l 850 -15 q 850 -22 850 -18 q 894 -60 850 -60 q 929 -32 919 -60 l 951 -32 q 932 -64 953 -49 q 894 -79 911 -79 q 845 -58 865 -79 q 825 -8 825 -37 q 890 64 825 64 q 956 -11 951 64 m 813 -75 q 804 -77 810 -75 q 796 -79 799 -79 q 765 -62 783 -79 l 765 40 q 746 54 758 43 q 763 64 751 64 q 768 89 767 67 q 785 107 768 106 l 785 67 q 808 63 793 63 l 808 44 l 785 44 l 785 -44 q 813 -75 797 -53 m 729 -75 l 707 -75 q 700 -60 707 -67 q 653 -79 675 -79 q 607 -40 607 -79 q 655 2 607 -4 q 703 22 703 8 q 668 47 703 47 q 635 21 640 47 q 622 22 629 21 q 611 25 615 24 q 671 64 618 64 q 726 4 726 64 q 725 -18 726 -3 q 725 -40 725 -32 q 729 -75 725 -61 m 590 114 l 543 -75 l 517 -75 q 471 88 503 -21 l 424 -75 l 397 -75 l 350 114 l 372 114 l 411 -43 q 457 114 426 10 l 483 114 q 529 -43 499 61 l 568 114 l 590 114 m 932 8 q 893 47 918 47 q 865 35 872 47 q 849 8 857 22 l 932 8 m 701 -35 l 701 -8 q 663 -15 683 -11 q 631 -28 642 -18 l 631 -47 q 661 -60 646 -60 q 687 -52 672 -60 q 701 -35 701 -44 z "},"f":{"ha":1389,"x_min":278,"x_max":1122,"o":"m 1122 265 l 1099 179 l 1082 179 q 1013 200 1064 179 q 835 294 900 244 q 789 329 817 313 q 474 167 561 174 q 449 249 467 185 q 726 388 628 304 q 597 607 646 497 q 326 199 531 346 q 278 272 325 203 q 547 811 510 444 l 539 818 l 290 818 l 290 888 l 556 888 q 556 1050 560 999 q 646 1047 615 1047 q 631 896 639 1001 l 639 889 l 1107 889 l 1107 818 l 635 818 q 615 690 614 738 l 910 690 l 926 706 l 996 653 q 928 521 979 625 q 849 394 888 440 q 1122 265 913 324 m 1051 -75 l 1032 -75 l 1032 -68 q 1029 -60 1032 -62 q 992 -79 1015 -79 q 950 -55 968 -79 q 932 -6 932 -31 q 999 64 932 64 q 1029 47 1021 64 q 1032 75 1032 60 q 1028 114 1032 93 l 1051 114 l 1051 -75 m 908 -75 l 885 -75 q 886 -15 886 -79 q 856 47 886 47 q 818 -3 824 47 q 817 -75 817 -39 l 799 -75 l 799 63 l 817 63 l 817 57 q 819 43 817 50 q 854 64 835 64 q 908 26 908 64 l 908 -75 m 610 88 l 592 88 l 592 114 l 610 114 l 610 88 m 769 -11 l 664 -15 q 664 -22 664 -18 q 708 -60 664 -60 q 743 -32 733 -60 l 765 -32 q 746 -64 767 -49 q 708 -79 725 -79 q 659 -58 679 -79 q 639 -8 639 -37 q 704 64 639 64 q 769 -11 765 64 m 610 -75 l 592 -75 l 592 63 l 610 63 l 610 -75 m 575 58 q 571 49 574 57 q 561 40 568 40 q 556 42 557 40 q 551 43 556 43 q 522 -6 528 43 q 524 -75 524 -4 l 504 -75 l 504 63 q 526 47 514 60 q 542 64 546 64 q 558 61 547 64 q 575 58 569 58 m 471 90 l 372 90 l 372 33 l 460 33 l 460 13 l 375 13 l 375 -75 l 350 -75 l 350 114 l 471 114 l 471 90 m 881 618 l 675 618 q 788 440 710 532 q 881 618 858 538 m 1032 -6 q 994 47 1032 47 q 956 -6 956 47 q 996 -60 956 -60 q 1032 -6 1032 -60 m 746 8 q 706 47 731 47 q 678 35 686 47 q 663 8 671 22 l 746 8 z "},"g":{"ha":1389,"x_min":267,"x_max":1131,"o":"m 1131 450 q 1049 404 1101 435 q 988 575 1006 533 q 893 732 950 660 q 958 786 897 736 q 1131 450 1068 658 m 810 885 q 751 810 810 878 q 551 969 671 896 q 604 1039 568 993 q 719 968 646 1019 q 810 885 810 906 m 982 424 q 953 292 972 351 q 878 199 922 199 l 565 199 q 524 216 543 199 q 504 257 504 233 l 504 857 l 607 853 l 594 826 l 594 300 l 610 286 l 843 286 q 875 360 857 286 q 893 451 885 406 q 982 424 951 435 m 1019 -75 q 1013 -77 1018 -75 q 1001 -79 1007 -79 q 972 -62 989 -79 l 972 40 q 950 56 964 44 q 935 42 947 51 q 899 -10 901 28 q 900 -75 900 -42 l 882 -75 l 882 63 q 903 47 890 60 q 919 65 911 65 q 936 63 925 65 q 953 61 947 61 q 972 63 963 61 q 974 91 974 76 q 992 107 975 106 l 992 67 q 1015 63 999 63 l 1015 44 l 992 44 l 992 -44 q 1019 -75 1004 -53 m 432 733 q 353 346 410 603 q 267 374 344 347 q 331 761 335 582 q 432 733 364 753 m 849 -75 l 826 -75 q 819 -60 825 -67 q 772 -79 793 -79 q 726 -40 726 -79 q 774 2 726 -4 q 821 22 821 8 q 788 47 821 47 q 753 21 758 47 q 741 22 749 21 q 731 25 733 24 q 789 64 738 64 q 844 4 844 64 q 844 -18 844 -3 q 843 -40 843 -32 q 849 -75 843 -61 m 706 -11 l 600 -15 q 600 -22 600 -18 q 644 -60 600 -60 q 679 -32 669 -60 l 701 -32 q 682 -64 703 -49 q 644 -79 661 -79 q 595 -58 615 -79 q 575 -8 575 -37 q 640 64 575 64 q 706 -11 701 64 m 542 -75 l 517 -75 q 519 -29 519 -53 q 517 17 519 -7 l 422 17 l 422 -75 l 397 -75 l 397 114 l 419 114 l 419 35 l 513 35 q 521 68 521 44 q 519 103 521 85 l 521 114 l 542 114 l 542 -75 m 821 -35 l 821 -8 q 783 -14 803 -11 q 750 -28 760 -18 l 750 -47 q 779 -60 765 -60 q 806 -52 792 -60 q 821 -35 821 -44 m 682 8 q 643 47 668 47 q 615 35 622 47 q 599 8 607 22 l 682 8 z "},"h":{"ha":1389,"x_min":267,"x_max":1138,"o":"m 972 610 q 926 539 960 588 q 786 632 854 592 q 826 694 804 667 q 972 610 881 674 m 979 424 q 935 344 964 397 q 782 450 888 385 q 822 515 792 476 q 979 424 926 460 m 1138 925 l 739 925 l 739 814 l 1094 814 l 1094 243 q 1078 207 1094 224 q 1040 190 1061 190 l 929 190 q 908 276 922 219 q 968 276 901 276 q 1017 289 996 276 l 1017 738 l 739 738 l 739 221 l 660 221 l 660 738 l 390 738 l 390 194 l 311 194 l 311 811 l 658 811 l 658 922 l 267 922 l 267 996 l 1138 996 l 1138 925 m 622 610 q 578 539 611 588 q 440 628 519 590 q 486 690 449 642 q 622 610 522 674 m 631 407 q 586 338 624 393 q 432 438 535 371 q 478 504 450 468 q 631 407 526 483 m 804 88 l 786 88 l 786 114 l 804 114 l 804 88 m 951 -75 l 929 -75 q 928 -65 928 -72 q 929 -40 928 -57 q 931 -15 931 -24 q 899 47 931 47 q 858 -32 858 47 q 860 -54 858 -37 q 860 -75 861 -67 l 842 -75 l 842 63 l 860 63 l 860 57 q 863 43 860 50 q 899 64 878 64 q 951 26 951 64 l 951 -75 m 804 -75 l 786 -75 l 786 63 l 804 63 l 804 -75 m 753 -75 l 731 -75 q 724 -60 731 -67 q 676 -79 699 -79 q 631 -40 631 -79 q 678 2 631 -4 q 726 22 726 8 q 692 47 726 47 q 658 21 664 47 q 646 22 653 21 q 635 25 639 24 q 694 64 642 64 q 750 4 750 64 q 749 -18 750 -3 q 749 -40 749 -32 q 753 -75 749 -61 m 611 -74 l 604 -75 q 556 -34 578 -76 q 517 8 535 8 l 474 8 q 474 -75 469 -31 l 449 -75 l 449 115 l 542 115 q 594 64 594 115 q 547 10 594 29 q 582 -29 563 1 q 611 -74 596 -51 m 725 -35 l 725 -8 q 689 -14 707 -11 q 654 -28 665 -18 l 654 -47 q 685 -60 669 -60 q 710 -52 696 -60 q 725 -35 725 -44 m 571 64 q 538 94 571 94 l 472 94 l 472 32 l 544 32 q 571 64 571 32 z "},"i":{"ha":1389,"x_min":278,"x_max":1114,"o":"m 1007 722 l 778 722 l 778 785 l 1007 785 l 1007 722 m 1007 607 l 778 607 l 778 665 l 1007 665 l 1007 607 m 1114 715 l 1040 715 l 1040 836 l 739 836 l 739 564 l 660 564 l 660 836 l 354 836 l 354 707 l 278 707 l 278 901 l 660 901 l 660 963 l 361 963 l 361 1035 l 1039 1035 l 1039 963 l 738 963 l 738 901 l 1114 901 l 1114 715 m 614 722 l 397 722 l 397 785 l 614 785 l 614 722 m 614 607 l 397 607 l 397 665 l 614 665 l 614 607 m 1047 163 l 968 163 l 968 185 l 361 185 l 361 263 l 968 263 l 968 336 l 361 336 l 361 401 l 968 401 l 968 458 l 361 458 l 361 531 l 1047 531 l 1047 163 m 1024 63 q 983 -75 1010 17 l 961 -75 q 933 24 951 -42 q 904 -75 921 8 l 878 -75 l 842 63 l 860 63 q 890 -43 869 28 q 921 63 911 17 l 943 63 q 971 -40 951 29 q 1004 63 971 -39 l 1024 63 m 825 -6 q 764 -79 825 -79 q 717 -58 735 -79 q 699 -8 699 -37 q 764 64 699 64 q 825 -6 825 64 m 674 -75 l 651 -75 q 650 -65 650 -72 q 651 -40 650 -57 q 653 -15 653 -24 q 621 47 653 47 q 581 -32 581 47 q 582 -54 581 -37 q 582 -75 583 -67 l 564 -75 l 564 63 l 583 63 l 582 57 q 585 43 582 50 q 621 64 601 64 q 674 26 674 64 l 674 -75 m 532 -22 q 509 -63 532 -47 q 460 -79 486 -79 q 406 -60 431 -79 q 382 -12 382 -42 l 404 -12 q 422 -44 403 -32 q 460 -56 440 -56 q 508 -24 508 -56 q 449 14 508 -1 q 389 64 389 29 q 456 115 389 115 q 528 60 518 115 l 504 60 q 456 96 490 96 q 413 65 413 96 q 472 29 413 39 q 532 -22 532 19 m 806 -6 q 794 30 806 13 q 764 47 782 47 q 722 -6 722 47 q 764 -60 722 -60 q 806 -6 806 -60 z "},"j":{"ha":1389,"x_min":179,"x_max":1218,"o":"m 1099 750 l 1024 750 l 1024 861 l 382 861 l 382 743 l 303 743 l 303 936 l 651 936 l 651 1043 l 753 1039 q 742 1013 742 1013 l 742 938 l 1099 938 l 1099 750 m 960 358 q 899 293 940 335 q 786 390 861 326 q 847 460 797 410 q 907 414 876 436 q 960 358 943 385 m 1103 213 l 299 213 l 299 285 l 654 285 l 654 467 l 410 467 l 410 539 l 654 539 l 654 676 l 406 676 l 406 749 l 992 749 l 992 679 l 735 679 l 735 540 l 996 540 l 996 468 l 735 468 l 735 288 l 1103 288 l 1103 213 m 1218 -11 l 1113 -15 q 1111 -22 1111 -18 q 1157 -60 1111 -60 q 1192 -32 1182 -60 l 1214 -32 q 1194 -64 1214 -49 q 1157 -79 1174 -79 q 1107 -58 1126 -79 q 1088 -8 1088 -37 q 1153 64 1088 64 q 1218 -11 1214 64 m 1083 58 q 1078 49 1082 57 q 1069 40 1075 40 q 1065 42 1065 40 q 1060 43 1064 43 q 1031 -6 1035 43 q 1031 -75 1031 -4 l 1013 -75 l 1013 63 q 1035 47 1022 60 q 1049 64 1054 64 q 1067 61 1056 64 q 1083 58 1078 58 m 974 -75 l 953 -75 l 953 -68 q 950 -60 953 -62 q 908 -79 931 -79 q 882 -69 899 -79 q 865 -49 865 -58 l 865 63 l 885 63 q 883 40 885 56 q 882 17 882 25 q 914 -60 882 -60 q 954 -1 954 -60 q 953 26 954 8 q 951 53 951 43 q 953 63 951 60 l 974 63 l 974 -75 m 838 -36 q 819 -67 838 -56 q 779 -79 800 -79 q 744 -67 763 -79 q 726 -39 726 -54 q 726 -32 726 -39 l 744 -32 q 782 -60 757 -60 q 814 -46 799 -60 l 814 -31 q 761 -10 788 -19 q 726 26 726 4 q 778 64 726 64 l 792 64 q 829 43 804 64 l 829 24 l 810 24 q 778 47 799 47 q 750 33 764 47 l 750 22 q 807 0 756 18 q 838 -36 838 -11 m 701 -75 l 679 -75 q 672 -60 679 -67 q 625 -79 647 -79 q 579 -40 579 -79 q 627 2 579 -4 q 675 22 675 8 q 640 47 675 47 q 607 21 613 47 q 594 22 601 21 q 583 25 588 24 q 643 64 593 64 q 699 6 699 64 q 697 -17 699 -1 q 697 -40 697 -32 q 701 -75 697 -61 m 558 -11 l 454 -15 q 453 -22 453 -18 q 497 -60 453 -60 q 532 -32 522 -60 l 554 -32 q 535 -64 556 -49 q 497 -79 515 -79 q 448 -58 468 -79 q 428 -8 428 -37 q 494 64 428 64 q 558 -11 556 64 m 421 58 q 416 49 419 57 q 407 40 413 40 q 402 42 403 40 q 397 43 401 43 q 368 -6 372 43 q 368 -75 368 -4 l 350 -75 l 350 63 q 371 47 360 60 q 386 64 390 64 q 404 61 393 64 q 421 58 415 58 m 325 92 l 264 92 l 264 -75 l 239 -75 l 239 90 q 179 90 210 93 l 179 114 l 325 114 l 325 92 m 1194 8 q 1154 47 1181 47 q 1126 35 1135 47 q 1111 8 1118 22 l 1194 8 m 674 -35 l 674 -8 q 638 -14 656 -11 q 603 -28 614 -18 l 603 -47 q 633 -60 618 -60 q 674 -35 674 -60 m 535 8 q 496 47 522 47 q 468 35 476 47 q 453 8 460 22 l 535 8 z "},"k":{"ha":1389,"x_min":246,"x_max":1139,"o":"m 1139 754 l 1097 671 q 892 769 1010 696 q 892 707 888 749 l 735 707 l 735 608 l 1063 608 l 1063 532 l 735 532 l 735 283 l 1094 283 l 1094 208 l 308 208 l 308 281 l 654 281 l 654 531 l 331 531 l 331 607 l 654 607 l 654 706 l 500 706 l 503 731 l 501 758 q 283 647 399 678 l 246 733 q 574 939 447 796 q 621 1006 576 942 q 664 1060 658 1060 l 757 1047 l 746 1025 q 1139 754 863 853 m 979 475 q 935 396 960 454 q 896 310 896 310 q 818 335 869 318 l 882 504 q 979 475 914 493 m 956 -75 l 936 -75 l 938 -68 q 935 -60 938 -62 q 897 -79 921 -79 q 855 -55 872 -79 q 838 -6 838 -31 q 903 64 838 64 q 933 47 925 64 q 936 75 936 60 q 933 114 936 93 l 956 114 l 956 -75 m 579 343 q 506 301 535 321 q 425 447 479 350 q 497 488 476 488 q 579 343 511 488 m 813 -75 l 794 -75 l 794 114 l 813 114 l 813 -75 m 758 -6 q 696 -79 758 -79 q 649 -58 668 -79 q 631 -8 631 -37 q 696 64 631 64 q 758 -6 758 64 m 611 -46 q 532 -79 582 -79 q 463 -52 489 -79 q 436 18 436 -25 q 538 115 436 115 q 607 60 590 115 q 585 56 593 57 q 528 96 569 96 q 460 18 460 96 q 529 -56 460 -56 q 588 -33 563 -56 l 588 -6 q 574 0 582 -1 q 556 1 567 1 q 540 0 543 0 l 532 0 l 532 19 l 611 19 l 611 -46 m 868 783 q 692 972 799 831 q 532 783 615 843 l 868 783 m 936 -6 q 899 47 936 47 q 861 -6 861 47 q 900 -60 861 -60 q 936 -6 936 -60 m 738 -6 q 726 31 738 14 q 696 47 715 47 q 654 -6 654 47 q 696 -60 654 -60 q 738 -6 738 -60 z "},"l":{"ha":1389,"x_min":254,"x_max":1122,"o":"m 1110 863 l 867 863 q 867 786 863 824 l 790 786 l 790 860 l 596 860 q 597 786 592 824 l 517 786 l 517 860 l 275 860 l 275 936 l 515 936 l 515 1043 l 607 1043 l 594 1025 l 594 936 l 788 936 l 788 1043 l 876 1043 l 864 1025 l 864 938 l 1110 938 l 1110 863 m 1122 347 q 1092 238 1122 271 q 986 204 1061 204 q 941 203 979 204 q 878 201 903 201 q 699 268 699 201 l 699 765 l 781 765 q 777 749 781 760 q 774 732 774 738 l 778 581 q 1025 714 888 611 q 1090 638 1068 686 q 932 568 1033 617 q 774 497 824 517 l 774 299 q 785 282 774 294 l 1008 282 q 1031 332 1025 299 q 1040 389 1039 385 l 1122 368 l 1122 347 m 1099 58 q 1094 49 1097 57 q 1085 40 1092 40 q 1080 42 1081 40 q 1075 43 1079 43 q 1047 -6 1051 43 q 1047 -75 1047 -4 l 1028 -75 l 1028 63 q 1050 47 1038 60 q 1065 64 1069 64 q 1082 61 1071 64 q 1099 58 1093 58 m 999 -11 l 894 -15 q 893 -22 893 -18 q 939 -60 893 -60 q 972 -32 964 -60 l 996 -32 q 976 -64 996 -49 q 939 -79 956 -79 q 889 -58 908 -79 q 869 -8 869 -37 q 935 64 869 64 q 999 -11 996 64 m 578 722 q 543 680 571 722 q 515 629 515 638 l 515 183 l 438 183 l 438 515 q 371 451 404 483 q 299 393 331 411 q 254 463 292 406 q 399 601 328 515 q 501 774 475 694 l 575 738 l 578 722 m 857 63 q 817 -75 843 17 l 794 -75 q 767 24 785 -42 q 738 -75 754 8 l 711 -75 l 675 63 l 693 63 q 724 -43 703 28 q 754 63 744 17 l 776 63 q 804 -40 785 29 q 838 63 804 -39 l 857 63 m 658 -6 q 597 -79 658 -79 q 550 -58 568 -79 q 532 -8 532 -37 q 597 64 532 64 q 658 -6 658 64 m 503 -75 l 485 -75 l 485 114 l 503 114 l 503 -75 m 447 90 l 349 90 l 349 33 l 436 33 l 436 13 l 350 13 l 350 -75 l 326 -75 l 326 114 l 447 114 l 447 90 m 975 8 q 936 47 963 47 q 908 35 917 47 q 893 8 900 22 l 975 8 m 639 -6 q 627 30 639 13 q 597 47 615 47 q 556 -6 556 47 q 597 -60 556 -60 q 639 -6 639 -60 z "},"m":{"ha":1389,"x_min":254,"x_max":1142,"o":"m 1142 194 l 254 194 l 254 271 l 679 271 l 679 360 l 421 360 l 421 438 l 679 438 l 679 519 l 483 519 q 339 400 415 449 q 301 467 325 422 q 413 562 354 496 q 497 682 472 628 q 567 644 533 668 q 532 597 544 618 q 569 596 539 596 l 678 597 l 678 689 l 389 689 l 389 1022 l 1019 1022 l 1019 689 l 757 689 l 757 596 l 1051 596 l 1051 518 l 757 518 l 757 438 l 992 438 l 992 360 l 757 360 l 757 271 l 1142 271 l 1142 194 m 944 58 q 940 49 943 57 q 931 40 936 40 q 926 42 926 40 q 921 43 925 43 q 892 -6 896 43 q 892 -75 892 -4 l 874 -75 l 874 63 q 896 47 883 60 q 910 64 915 64 q 928 61 917 64 q 944 58 939 58 m 840 -75 l 818 -75 q 811 -60 818 -67 q 764 -79 786 -79 q 718 -40 718 -79 q 766 2 718 -4 q 814 22 814 8 q 779 47 814 47 q 744 21 751 47 q 733 22 740 21 q 722 25 726 24 q 782 64 732 64 q 838 4 838 64 q 836 -18 838 -3 q 836 -40 836 -32 q 840 -75 836 -61 m 701 -75 q 693 -77 699 -75 q 685 -79 688 -79 q 654 -62 672 -79 l 654 40 q 635 54 647 43 q 651 64 640 64 q 657 89 656 67 q 674 107 658 106 l 674 67 q 697 63 682 63 l 697 44 l 674 44 l 674 -44 q 701 -75 686 -53 m 619 -22 q 597 -63 619 -47 q 547 -79 574 -79 q 494 -60 518 -79 q 468 -12 469 -42 l 492 -12 q 508 -44 490 -32 q 547 -56 526 -56 q 594 -24 594 -56 q 535 15 594 -3 q 476 64 476 32 q 543 115 476 115 q 614 60 606 115 l 592 60 q 572 84 588 72 q 543 96 557 96 q 500 65 500 96 q 560 32 500 47 q 619 -22 619 17 m 943 892 l 943 961 l 467 961 l 467 892 l 943 892 m 943 754 l 943 825 l 465 825 l 465 754 l 943 754 m 813 -35 l 813 -8 q 774 -15 794 -11 q 742 -28 753 -18 l 742 -47 q 772 -60 757 -60 q 813 -35 813 -60 z "},"n":{"ha":1389,"x_min":250,"x_max":1138,"o":"m 1138 833 l 989 833 q 989 758 985 799 l 913 758 l 913 832 l 771 832 q 771 758 768 797 l 690 758 l 690 832 l 549 832 l 549 908 l 689 908 l 689 1035 l 781 1035 l 769 1017 l 769 908 l 913 908 l 913 1043 l 996 1043 l 996 1038 q 988 1018 994 1028 l 988 910 l 1138 910 l 1138 833 m 1113 179 l 1036 179 l 1036 218 l 665 218 q 663 171 663 203 l 588 171 l 588 714 l 1113 714 l 1113 179 m 571 978 q 468 833 535 933 q 511 638 511 711 l 511 288 q 480 208 511 244 q 406 171 449 171 l 331 171 q 318 246 329 178 q 351 242 335 242 q 440 319 440 242 q 440 433 440 363 q 438 547 438 519 q 292 381 378 440 l 254 447 q 432 667 432 629 q 414 765 432 710 q 296 675 375 735 q 250 740 290 679 q 318 789 308 781 q 376 847 356 818 q 282 986 347 900 q 328 1035 301 1013 q 382 979 353 1021 q 426 913 404 946 q 497 1019 456 936 q 571 978 546 996 m 900 -75 q 892 -77 897 -75 q 883 -79 886 -79 q 853 -62 871 -79 l 853 40 q 833 54 846 43 q 850 64 838 64 q 856 89 854 67 q 872 107 856 106 l 872 67 q 896 63 879 63 l 896 44 l 872 44 l 872 -44 q 900 -75 885 -53 m 817 -75 l 794 -75 q 788 -60 794 -67 q 740 -79 763 -79 q 694 -40 694 -79 q 742 2 694 -4 q 789 22 789 8 q 756 47 789 47 q 721 21 726 47 q 709 22 717 21 q 699 25 701 24 q 758 64 708 64 q 814 4 814 64 q 813 -18 814 -3 q 813 -40 813 -32 q 817 -75 813 -61 m 671 -22 q 642 -61 671 -43 q 592 -79 614 -79 q 528 -50 551 -79 q 504 19 504 -21 q 528 88 504 61 q 593 115 551 115 q 667 65 646 115 l 649 56 q 626 83 638 69 q 592 96 614 96 q 528 19 528 96 q 592 -56 528 -56 q 647 -8 642 -56 q 671 -22 671 -18 m 1035 496 l 1035 642 l 882 642 l 882 496 l 1035 496 m 1035 294 l 1035 436 l 882 436 l 882 294 l 1035 294 m 813 499 l 813 642 l 665 642 l 665 499 l 813 499 m 813 294 l 813 436 l 663 436 l 663 294 l 813 294 m 789 -35 l 789 -8 q 750 -15 771 -11 q 718 -28 729 -18 l 718 -47 q 747 -60 733 -60 q 789 -35 789 -60 z "},"o":{"ha":1389,"x_min":269,"x_max":1135,"o":"m 996 882 q 935 814 975 860 l 806 931 q 835 969 811 942 q 867 996 860 996 q 932 947 878 996 q 996 882 986 899 m 1135 304 l 1082 207 q 858 351 971 243 q 710 567 746 460 q 561 326 697 447 q 307 186 435 217 q 269 281 297 207 q 531 431 425 319 q 643 701 643 550 l 290 701 l 290 788 l 643 788 l 643 1031 l 715 1032 q 749 1031 743 1033 l 733 1004 l 733 790 l 1104 790 l 1104 703 l 742 703 q 883 454 754 574 q 1135 304 999 347 m 921 -94 q 899 -119 921 -108 q 861 -131 876 -131 q 806 -87 822 -131 q 836 -103 822 -96 q 872 -111 850 -111 q 900 -81 886 -111 l 897 -60 q 858 -75 874 -75 q 817 -53 833 -75 q 801 -4 801 -31 q 868 64 801 64 q 899 47 890 64 q 901 63 901 50 l 921 63 l 921 -94 m 782 -6 q 719 -79 782 -79 q 673 -58 692 -79 q 654 -8 654 -37 q 719 64 654 64 q 782 -6 782 64 m 635 19 q 616 -44 635 -14 q 565 -75 597 -75 l 481 -75 l 481 115 l 557 115 q 617 85 594 115 q 635 19 635 60 m 900 -6 q 863 47 900 47 q 825 -4 825 47 q 863 -56 825 -56 q 900 -6 900 -56 m 761 -6 q 750 31 761 14 q 719 47 739 47 q 678 -6 678 47 q 719 -60 678 -60 q 761 -6 761 -60 m 611 19 q 599 65 611 40 q 569 90 586 90 l 504 90 l 504 -51 l 569 -51 q 600 -24 586 -51 q 611 19 611 0 z "},"p":{"ha":1389,"x_min":282,"x_max":1110,"o":"m 1110 554 l 468 554 l 468 501 l 1090 501 q 1071 318 1081 410 q 1006 175 1049 175 l 842 175 l 842 207 l 842 246 q 988 276 965 246 q 1004 439 1004 299 l 393 439 l 393 979 l 596 979 q 615 1067 610 1025 l 632 1067 q 710 1050 658 1067 q 678 982 699 1028 l 960 982 l 960 675 l 468 675 l 468 621 l 1110 621 l 1110 554 m 936 299 q 871 274 906 292 q 806 400 849 315 l 867 425 q 936 299 918 361 m 769 247 l 688 226 q 651 379 676 278 q 708 397 713 397 q 744 331 722 397 q 769 247 757 289 m 913 -75 l 893 -75 l 893 -68 q 890 -60 893 -62 q 853 -79 876 -79 q 810 -56 826 -79 q 793 -6 793 -33 q 861 64 793 64 q 890 47 879 64 q 893 75 893 60 q 889 114 893 93 l 913 114 l 913 -75 m 583 317 l 583 215 l 501 215 l 501 385 q 517 382 504 382 q 571 385 532 382 q 583 317 583 324 m 678 88 l 660 88 l 660 114 l 678 114 l 678 88 m 789 58 q 785 49 789 57 q 775 40 782 40 q 770 42 771 40 q 765 43 769 43 q 738 -6 742 43 q 738 -75 738 -4 l 719 -75 l 719 63 q 740 47 728 60 q 756 64 760 64 q 773 61 761 64 q 789 58 785 58 m 678 -75 l 660 -75 l 660 63 l 678 63 l 678 -75 m 424 383 q 356 199 411 325 q 282 236 324 208 q 350 404 306 292 q 424 383 375 400 m 626 -19 q 612 -58 626 -40 q 576 -75 597 -75 l 485 -75 l 485 115 l 565 115 q 602 101 585 115 q 619 68 619 88 q 594 26 619 43 q 626 -19 626 8 m 885 856 l 885 915 l 471 915 l 471 856 l 885 856 m 885 736 l 885 793 l 471 793 l 471 736 l 885 736 m 893 -6 q 856 47 893 47 q 817 -6 817 47 q 857 -60 817 -60 q 893 -6 893 -60 m 594 61 q 588 80 594 69 q 572 90 581 90 l 508 90 l 508 36 l 578 36 q 594 61 594 51 m 603 -19 q 595 1 603 -10 q 576 11 588 11 l 508 11 l 508 -51 l 581 -51 q 596 -40 589 -51 q 603 -19 603 -28 z "},"q":{"ha":1389,"x_min":397,"x_max":1003,"o":"m 1003 235 l 917 235 l 917 289 l 488 289 q 488 219 482 256 l 397 219 l 397 968 l 1003 968 l 1003 235 m 917 -75 l 893 -75 q 893 -65 893 -72 q 893 -40 893 -57 q 894 -15 894 -24 q 863 47 894 47 q 822 -32 822 47 q 824 -52 822 -37 q 825 -75 825 -67 l 806 -75 l 806 63 l 825 63 l 825 57 q 828 43 824 50 q 863 64 843 64 q 917 26 917 64 l 917 -75 m 767 -75 l 746 -75 l 747 -68 q 744 -60 747 -62 q 703 -79 725 -79 q 675 -69 692 -79 q 658 -49 658 -58 l 658 63 l 678 63 q 676 40 678 56 q 675 17 675 25 q 708 -60 675 -60 q 749 -1 749 -60 q 747 25 749 7 q 746 51 746 43 q 747 63 746 60 l 767 63 l 767 -75 m 626 -22 q 604 -63 626 -47 q 556 -79 582 -79 q 502 -60 526 -79 q 476 -12 478 -42 l 500 -12 q 518 -44 497 -32 q 556 -56 535 -56 q 603 -24 603 -56 q 543 13 603 -1 q 483 64 483 28 q 551 115 483 115 q 622 60 614 115 l 600 60 q 551 96 585 96 q 508 65 508 96 q 567 32 508 47 q 626 -22 626 17 m 915 674 l 915 892 l 486 892 l 486 674 l 915 674 m 915 364 l 915 599 l 486 599 l 486 364 l 915 364 z "},"r":{"ha":1389,"x_min":301,"x_max":1011,"o":"m 979 228 q 959 200 979 214 q 926 186 939 186 l 822 186 q 806 272 818 215 q 861 272 799 272 q 906 285 889 272 l 906 481 l 543 481 q 367 167 519 290 q 301 236 336 196 q 419 366 376 285 q 461 538 461 447 l 461 1011 l 979 1011 l 979 228 m 1011 -75 l 989 -75 q 988 -65 988 -72 q 989 -40 988 -57 q 990 -15 990 -24 q 958 47 990 47 q 918 -32 918 47 q 919 -54 918 -37 q 919 -75 921 -67 l 901 -75 l 901 63 l 919 63 l 919 57 q 922 43 919 50 q 957 64 938 64 q 1011 26 1011 64 l 1011 -75 m 869 -6 q 807 -79 869 -79 q 760 -58 779 -79 q 742 -8 742 -37 q 807 64 742 64 q 869 -6 869 64 m 722 -6 q 661 -79 722 -79 q 613 -58 632 -79 q 594 -8 594 -37 q 661 64 594 64 q 722 -6 722 64 m 568 -75 l 544 -75 l 544 79 q 492 -75 511 -10 l 469 -75 l 414 79 l 414 -75 l 389 -75 l 389 114 l 424 114 l 482 -43 l 540 114 l 568 114 l 568 -75 m 904 790 l 904 928 l 536 928 l 536 790 l 904 790 m 904 564 l 904 701 l 536 701 l 536 564 l 904 564 m 849 -6 q 837 30 849 13 q 807 47 825 47 q 765 -6 765 47 q 807 -60 765 -60 q 849 -6 849 -60 m 703 -6 q 691 31 703 14 q 661 47 679 47 q 619 -6 619 47 q 661 -60 619 -60 q 703 -6 703 -60 z "},"s":{"ha":1389,"x_min":278,"x_max":1126,"o":"m 1126 296 q 1082 199 1115 267 q 853 368 969 235 q 703 615 747 492 q 564 369 683 503 q 335 199 444 235 q 278 281 318 224 q 596 574 522 376 q 643 1011 643 699 l 715 1013 q 749 1011 743 1014 l 733 985 l 733 803 q 858 494 733 651 q 1126 296 979 342 m 1103 -75 l 1079 -75 q 1079 -65 1079 -72 q 1081 -40 1079 -57 q 1081 -15 1081 -24 q 1050 47 1081 47 q 1010 -32 1010 47 q 1011 -54 1010 -37 q 1011 -75 1011 -67 l 993 -75 l 993 63 l 1011 63 l 1011 57 q 1014 43 1011 50 q 1049 64 1029 64 q 1103 26 1103 64 l 1103 -75 m 956 -6 q 894 -79 956 -79 q 848 -58 867 -79 q 829 -8 829 -37 q 894 64 829 64 q 956 -6 956 64 m 814 -36 q 795 -67 814 -56 q 756 -79 776 -79 q 721 -67 739 -79 q 703 -39 703 -54 q 703 -32 703 -39 l 721 -32 q 758 -60 733 -60 q 790 -46 775 -60 l 790 -31 q 736 -10 763 -19 q 703 26 703 4 q 754 64 703 64 l 768 64 q 806 43 781 64 l 806 24 l 786 24 q 754 47 775 47 q 726 33 740 47 l 726 22 q 783 0 732 18 q 814 -36 814 -11 m 694 58 q 690 49 693 57 q 681 40 686 40 q 676 42 676 40 q 671 43 675 43 q 642 -6 646 43 q 642 -75 642 -4 l 624 -75 l 624 63 q 646 47 633 60 q 660 64 665 64 q 678 61 667 64 q 694 58 689 58 m 594 -11 l 489 -15 q 489 -22 489 -18 q 533 -60 489 -60 q 568 -32 558 -60 l 590 -32 q 571 -64 592 -49 q 533 -79 550 -79 q 484 -58 504 -79 q 464 -8 464 -37 q 529 64 464 64 q 594 -11 590 64 m 440 57 q 401 6 440 15 q 329 0 389 1 q 326 -36 326 -12 q 328 -75 326 -58 l 301 -75 l 301 115 l 386 115 q 440 57 440 115 m 936 -6 q 924 30 936 13 q 894 47 913 47 q 853 -6 853 47 q 894 -60 853 -60 q 936 -6 936 -60 m 571 8 q 532 47 557 47 q 504 35 513 47 q 489 8 496 22 l 571 8 m 417 60 q 394 90 417 90 l 326 90 l 326 24 l 390 24 q 417 60 417 24 z "},"t":{"ha":1389,"x_min":263,"x_max":1139,"o":"m 1090 933 q 1071 932 1085 926 l 946 825 l 885 875 l 1017 1004 q 1059 972 1032 997 q 1090 933 1086 947 m 1115 681 q 1057 607 1107 669 q 885 732 1000 654 l 933 797 q 1115 681 1025 753 m 1139 300 l 1118 214 l 1101 214 q 911 285 1036 214 q 740 408 793 350 l 740 175 l 656 175 l 656 385 q 294 199 500 256 q 263 281 285 226 q 626 454 507 344 l 282 454 l 282 529 l 657 529 l 657 603 l 606 603 l 603 579 l 536 579 l 536 951 l 564 951 l 632 953 q 660 1056 644 985 q 750 1038 689 1049 q 699 954 738 1022 q 860 956 715 951 l 860 588 l 794 588 l 790 603 l 738 603 l 738 529 l 1114 529 l 1114 453 l 782 453 q 1139 300 942 326 m 496 903 q 447 821 479 876 l 314 906 l 363 976 l 496 903 m 508 724 q 335 575 500 717 q 282 657 317 596 q 376 719 329 688 q 467 789 431 757 q 508 724 481 768 m 908 -75 l 885 -75 q 886 -15 886 -79 q 856 47 886 47 q 818 -3 824 47 q 817 -75 817 -39 l 799 -75 l 799 63 l 817 63 l 817 57 q 819 43 817 50 q 854 64 835 64 q 908 26 908 64 l 908 -75 m 760 -75 l 739 -75 l 739 -68 q 736 -60 739 -62 q 694 -79 717 -79 q 667 -69 683 -79 q 651 -49 651 -58 l 651 63 l 669 63 q 669 40 669 56 q 668 17 668 25 q 700 -60 668 -60 q 740 -1 740 -60 q 739 26 740 8 q 738 53 738 43 q 739 63 738 60 l 760 63 l 760 -75 m 618 90 l 519 90 l 519 33 l 607 33 l 607 13 l 521 13 l 521 -75 l 496 -75 l 496 114 l 618 114 l 618 90 m 793 810 l 793 888 l 604 888 l 604 810 l 793 810 m 793 667 l 793 746 l 604 746 l 604 667 l 793 667 z "},"u":{"ha":1389,"x_min":250,"x_max":1142,"o":"m 1142 710 l 776 710 q 650 621 694 650 q 979 667 778 625 q 1031 568 1007 624 q 986 579 986 579 l 603 556 q 586 492 596 535 l 1028 492 q 990 301 1008 397 q 888 167 960 167 q 808 175 858 167 q 731 188 769 182 l 731 186 q 732 190 732 188 l 732 210 l 731 274 q 856 254 829 254 q 929 419 929 254 l 571 419 q 518 297 554 379 l 444 322 l 513 524 q 283 413 438 485 q 250 483 276 432 q 468 578 347 514 q 667 708 596 646 l 258 708 l 258 788 l 607 788 l 607 875 l 350 875 l 350 951 l 607 951 l 607 1063 l 674 1064 q 706 1063 699 1065 l 686 1036 l 686 953 l 883 953 l 881 928 l 883 904 q 958 1000 908 933 q 1031 933 983 979 l 1028 933 q 865 788 1006 933 l 1142 788 l 1142 710 m 1019 -74 q 1010 -76 1014 -76 q 974 -47 992 -76 q 946 -4 950 -7 q 925 -36 925 -18 q 927 -51 925 -42 q 929 -65 929 -61 q 928 -75 929 -69 l 910 -75 l 910 114 l 932 114 l 932 11 q 985 63 938 17 l 1011 63 q 964 10 964 15 q 1019 -74 964 3 m 721 88 l 703 88 l 703 114 l 721 114 l 721 88 m 872 -75 l 850 -75 q 850 -15 850 -79 q 819 47 850 47 q 782 -3 788 47 q 781 -75 782 -39 l 763 -75 l 763 63 l 781 63 l 781 57 q 783 43 781 50 q 818 64 799 64 q 872 26 872 64 l 872 -75 m 721 -75 l 703 -75 l 703 63 l 721 63 l 721 -75 m 667 -75 l 643 -75 q 644 -15 644 -82 q 613 47 644 47 q 575 -3 581 47 q 575 -75 575 -39 l 556 -75 l 556 114 l 578 114 q 575 79 575 97 q 578 47 575 63 q 619 64 593 64 q 667 22 667 64 l 667 -75 m 526 92 l 465 92 l 465 -75 l 440 -75 l 440 90 q 382 90 413 93 l 382 114 l 526 114 l 526 92 m 857 876 l 688 876 l 688 786 l 764 786 l 857 876 z "},"v":{"ha":1389,"x_min":211,"x_max":1182,"o":"m 1147 232 q 1072 186 1128 206 q 1033 246 1049 246 q 821 224 974 246 q 614 182 661 200 q 583 265 601 208 q 699 269 586 265 q 814 285 769 274 l 814 419 l 693 419 l 690 389 l 628 389 l 628 663 l 813 663 l 813 767 q 706 761 760 764 q 608 733 633 757 q 588 836 608 736 l 597 833 q 696 872 657 833 q 749 957 721 897 q 799 1051 781 1028 q 889 1014 810 1047 q 824 931 854 985 q 774 836 799 883 l 957 851 l 900 911 q 963 960 921 926 q 1050 871 1024 900 q 1131 775 1097 819 q 1061 722 1108 754 q 1006 793 1043 747 q 883 778 925 782 l 882 740 l 883 664 l 1079 664 l 1079 421 l 882 421 l 882 296 q 915 289 915 289 q 1004 300 939 289 l 956 367 q 1006 408 971 383 q 1147 232 1054 375 m 1182 -75 l 1160 -75 q 1158 -58 1158 -68 q 1158 -37 1158 -51 q 1160 -15 1160 -22 q 1129 47 1160 47 q 1092 3 1099 47 q 1090 -65 1092 -31 l 1090 -75 l 1072 -75 l 1072 114 l 1094 114 q 1092 79 1092 97 q 1093 47 1092 63 q 1135 64 1110 64 q 1182 22 1182 64 l 1182 -75 m 1047 -75 q 1039 -77 1044 -75 q 1029 -79 1033 -79 q 1000 -62 1017 -79 l 1000 40 q 981 54 992 43 q 997 64 985 64 q 1001 81 1001 68 l 1001 85 q 1019 107 1001 106 l 1019 67 q 1043 63 1026 63 l 1043 44 l 1019 44 l 1019 -44 q 1047 -75 1032 -53 m 556 561 q 450 167 556 167 l 308 167 q 306 238 307 157 l 422 238 q 463 357 449 238 q 472 515 472 439 l 353 515 l 344 492 q 267 492 281 496 l 267 517 q 282 657 267 567 q 301 796 300 753 q 483 797 319 801 l 483 947 l 267 947 l 267 1007 l 551 1007 l 551 711 l 489 711 l 485 735 q 415 739 471 739 l 376 739 q 353 582 371 686 l 556 582 l 556 561 m 956 -94 q 934 -119 956 -108 q 897 -131 913 -131 q 842 -87 857 -131 q 872 -103 857 -96 q 908 -111 886 -111 q 936 -81 922 -111 l 933 -60 q 894 -75 910 -75 q 853 -53 869 -75 q 838 -4 838 -31 q 903 64 838 64 q 935 47 926 64 q 938 63 938 51 l 956 63 l 956 -94 m 813 -75 l 790 -75 q 789 -58 789 -68 q 790 -37 789 -51 q 792 -15 792 -22 q 760 47 792 47 q 724 3 729 47 q 722 -64 722 -6 q 721 -75 722 -71 l 703 -75 l 703 63 l 721 63 l 721 57 q 724 43 721 50 q 760 64 739 64 q 813 26 813 64 l 813 -75 m 674 -11 l 568 -15 l 568 -22 q 613 -60 568 -60 q 647 -32 638 -60 l 669 -32 q 651 -64 671 -49 q 613 -79 631 -79 q 563 -58 583 -79 q 543 -8 543 -37 q 608 64 543 64 q 674 -11 669 64 m 539 58 q 535 49 539 57 q 525 40 532 40 q 521 42 522 40 q 515 43 519 43 q 488 -7 492 43 q 488 -75 488 -3 l 469 -75 l 469 63 q 490 47 478 60 q 506 64 508 64 q 522 61 511 64 q 539 58 533 58 m 444 -75 q 435 -77 440 -75 q 426 -79 429 -79 q 397 -62 414 -79 l 397 40 q 376 54 389 43 q 394 64 382 64 q 399 81 399 68 l 399 85 q 417 107 399 106 l 417 67 q 440 63 424 63 l 440 44 l 417 44 l 417 -44 q 444 -75 429 -53 m 361 -22 q 338 -63 361 -47 q 290 -79 315 -79 q 236 -60 260 -79 q 211 -12 213 -42 l 233 -12 q 283 -56 243 -56 q 338 -24 338 -56 q 278 17 338 4 q 218 64 218 29 q 286 115 218 115 q 357 60 349 115 l 335 60 q 286 96 321 96 q 242 65 242 96 q 301 31 242 42 q 361 -22 361 19 m 1011 485 l 1011 603 l 882 603 l 882 485 l 1011 485 m 813 485 l 813 603 l 690 603 l 690 485 l 813 485 m 936 -6 q 899 47 936 47 q 861 -4 861 47 q 899 -56 861 -56 q 936 -6 936 -56 m 650 8 q 611 47 635 47 q 583 35 592 47 q 568 8 575 22 l 650 8 z "},"w":{"ha":1389,"x_min":246,"x_max":1150,"o":"m 1150 792 q 1106 718 1136 767 q 863 949 929 824 q 653 694 778 783 l 599 764 q 738 893 674 808 q 831 1058 800 972 q 917 1039 861 1054 l 904 1021 q 1008 888 931 956 q 1150 792 1074 831 m 1015 688 l 739 688 l 739 761 l 1015 761 l 1015 688 m 1143 228 q 1064 186 1121 210 q 1024 250 1042 250 q 836 224 988 250 q 669 186 676 197 q 643 232 656 196 q 624 285 626 281 q 664 278 646 278 q 731 322 706 278 q 765 416 747 350 q 793 501 783 482 q 747 507 775 506 q 697 506 729 507 q 651 504 661 504 q 654 540 656 525 l 651 571 q 596 551 633 565 q 581 596 589 578 q 490 594 513 590 l 490 171 l 413 171 l 413 572 q 394 579 394 579 q 267 560 376 579 q 246 646 246 608 l 278 644 q 393 715 344 639 q 258 818 372 742 q 299 881 276 851 l 335 857 l 450 1051 q 519 1010 474 1038 l 389 819 q 442 782 406 806 l 549 940 q 585 917 558 932 q 619 886 607 904 q 522 779 597 876 q 428 653 475 717 l 460 651 q 550 658 482 650 l 528 717 q 590 738 568 733 q 669 579 639 657 l 1122 579 l 1122 504 l 892 504 l 797 297 l 826 296 q 992 313 872 294 q 913 419 978 347 q 981 449 985 449 q 1064 350 996 449 q 1143 228 1126 261 m 1103 -11 l 997 -15 q 996 -22 996 -18 q 1042 -60 996 -60 q 1076 -32 1067 -60 l 1099 -32 q 1079 -64 1100 -49 q 1042 -79 1058 -79 q 992 -58 1011 -79 q 972 -8 972 -37 q 1038 64 972 64 q 1103 -11 1099 64 m 639 338 q 557 322 600 332 q 513 507 546 415 q 544 511 522 507 q 575 515 565 515 q 615 438 590 515 q 639 338 639 365 m 964 58 q 959 49 963 57 q 950 40 956 40 q 945 42 946 40 q 940 43 944 43 q 911 -6 917 43 q 913 -75 913 -4 l 893 -75 l 893 63 q 915 47 903 60 q 929 64 935 64 q 947 61 936 64 q 964 58 958 58 m 854 -75 l 833 -75 l 833 -68 q 831 -60 835 -62 q 789 -79 813 -79 q 763 -69 779 -79 q 746 -49 746 -58 l 746 63 l 765 63 q 764 40 765 56 q 763 17 763 25 q 796 -60 763 -60 q 836 -1 836 -60 q 834 26 836 8 q 832 53 832 43 q 835 63 832 60 l 854 63 l 854 -75 m 725 -75 q 718 -77 724 -75 q 708 -79 713 -79 q 679 -62 696 -79 l 679 40 q 658 54 671 43 q 675 64 664 64 q 681 89 679 67 q 697 107 682 106 l 697 67 q 721 63 706 63 l 721 44 l 697 44 l 697 -44 q 725 -75 711 -53 m 368 494 q 324 258 358 415 q 254 286 279 278 q 286 507 286 407 q 368 494 329 503 m 503 88 l 485 88 l 485 114 l 503 114 l 503 88 m 654 -29 q 597 -79 643 -79 q 536 -8 536 -79 q 597 64 536 64 q 646 21 649 64 l 628 21 q 597 47 622 47 q 560 -11 560 47 q 597 -60 560 -60 q 632 -24 624 -60 q 654 -29 638 -28 m 503 -75 l 485 -75 l 485 63 l 503 63 l 503 -75 m 449 57 q 410 4 449 15 q 336 0 389 -1 q 333 -37 333 -17 q 336 -75 333 -57 l 310 -75 l 310 115 l 394 115 q 433 99 418 115 q 449 57 449 82 m 1079 8 q 1039 47 1064 47 q 1011 35 1019 47 q 996 8 1003 22 l 1079 8 m 425 60 q 403 90 425 90 l 333 90 l 333 24 l 399 24 q 425 60 425 24 z "},"x":{"ha":1389,"x_min":271,"x_max":1126,"o":"m 1114 767 l 1024 767 l 1024 872 l 825 872 l 825 707 q 883 682 825 682 q 956 686 942 682 q 997 742 989 697 q 1071 710 1019 735 q 990 617 1064 636 q 854 610 961 610 q 761 636 788 610 q 740 708 740 658 q 745 783 740 728 q 750 872 750 839 l 626 872 q 563 670 593 707 q 371 564 532 633 l 329 638 q 465 699 392 646 q 547 811 547 756 l 547 872 l 371 872 l 371 743 l 282 743 l 282 947 l 651 947 l 651 1050 l 753 1050 l 742 1032 l 742 950 l 1114 950 l 1114 767 m 1126 190 l 271 190 l 271 276 l 654 276 l 654 443 l 361 443 l 361 526 l 1026 526 l 1026 444 l 735 444 l 735 279 l 1126 279 l 1126 190 m 913 63 q 879 -39 896 13 q 828 -131 857 -99 l 801 -126 l 801 -108 q 842 -75 842 -107 q 794 63 842 -68 l 817 63 q 856 -43 828 26 l 893 63 l 913 63 m 785 -74 q 775 -76 781 -76 q 739 -47 757 -76 q 713 -4 715 -7 q 692 -36 692 -18 q 693 -51 692 -42 q 694 -65 694 -61 q 693 -75 694 -69 l 675 -75 l 675 114 l 697 114 l 697 11 q 751 63 703 17 l 778 63 q 731 10 731 15 q 785 -74 731 3 m 639 -22 q 617 -63 639 -47 q 567 -79 594 -79 q 514 -60 538 -79 q 489 -12 490 -42 l 511 -12 q 528 -44 510 -32 q 567 -56 547 -56 q 615 -24 615 -56 q 556 15 615 -1 q 496 64 496 32 q 564 115 496 115 q 635 60 625 115 l 611 60 q 564 96 597 96 q 519 65 519 96 q 579 32 519 47 q 639 -22 639 17 z "},"y":{"ha":1389,"x_min":243,"x_max":1154,"o":"m 1090 219 q 1076 189 1090 203 q 1044 175 1061 175 l 961 175 q 944 249 953 197 q 983 249 940 249 q 1024 261 1011 249 l 1024 485 q 853 485 1017 485 q 815 308 828 346 q 708 167 785 221 q 654 217 694 176 q 739 315 703 254 q 778 439 778 382 l 778 1007 l 1090 1007 l 1090 219 m 733 329 l 544 329 l 544 171 l 465 171 l 465 328 l 258 328 l 258 401 l 465 401 l 465 479 l 314 479 l 314 822 l 465 822 l 465 888 l 278 888 l 278 963 l 463 963 l 463 1054 l 554 1054 l 543 1036 l 543 965 l 718 965 l 718 888 l 543 888 l 543 822 l 690 822 l 690 479 l 543 479 l 543 401 l 733 401 l 733 329 m 1154 -94 q 1133 -119 1154 -108 q 1094 -131 1111 -131 q 1040 -87 1056 -131 q 1071 -106 1040 -87 q 1108 -111 1082 -111 q 1135 -81 1118 -111 l 1132 -60 q 1093 -75 1110 -75 q 1051 -53 1067 -75 q 1036 -4 1036 -31 q 1103 64 1036 64 q 1133 47 1122 64 q 1135 63 1135 50 l 1154 63 l 1154 -94 m 860 88 l 842 88 l 842 114 l 860 114 l 860 88 m 1011 -75 l 989 -75 q 988 -65 988 -72 q 989 -40 988 -57 q 990 -15 990 -24 q 958 47 990 47 q 918 -32 918 47 q 919 -54 918 -37 q 919 -75 921 -67 l 901 -75 l 901 63 l 919 63 l 919 57 q 922 43 919 50 q 957 64 938 64 q 1011 26 1011 64 l 1011 -75 m 860 -75 l 842 -75 l 842 63 l 860 63 l 860 -75 m 806 -75 l 782 -75 q 782 -65 782 -72 q 782 -40 782 -57 q 783 -15 783 -24 q 751 47 783 47 q 711 -32 711 47 q 713 -52 711 -37 q 714 -75 714 -67 l 694 -75 l 694 63 l 714 63 l 714 57 q 717 43 713 50 q 751 64 732 64 q 806 26 806 64 l 806 -75 m 678 58 q 674 49 678 57 q 664 40 671 40 q 659 42 660 40 q 654 43 658 43 q 626 -6 631 43 q 626 -75 626 -4 l 608 -75 l 608 63 q 629 47 617 60 q 644 64 649 64 q 662 61 650 64 q 678 58 674 58 m 575 -6 q 514 -79 575 -79 q 467 -58 485 -79 q 449 -8 449 -37 q 514 64 449 64 q 575 -6 575 64 m 422 -75 l 397 -75 l 397 79 q 344 -75 364 -10 l 322 -75 l 267 79 l 267 -75 l 243 -75 l 243 114 l 276 114 l 335 -43 l 393 114 l 422 114 l 422 -75 m 1024 786 l 1024 936 l 846 936 l 846 786 l 1024 786 m 1024 556 l 1024 710 l 846 710 l 846 556 l 1024 556 m 622 683 l 622 761 l 382 761 l 382 683 l 622 683 m 1135 -6 q 1097 47 1135 47 q 1060 -4 1060 47 q 1097 -56 1060 -56 q 1135 -6 1135 -56 m 622 540 l 622 622 l 382 622 l 382 540 l 622 540 m 556 -6 q 544 30 556 13 q 514 47 532 47 q 472 -6 472 47 q 514 -60 472 -60 q 556 -6 556 -60 z "},"z":{"ha":1389,"x_min":250,"x_max":1146,"o":"m 1146 257 l 1106 179 q 831 325 979 207 q 533 167 694 201 l 504 240 q 769 379 669 279 q 653 551 700 460 q 550 421 596 474 q 500 482 546 425 q 699 865 649 638 l 515 865 q 571 832 535 854 q 464 464 464 674 q 468 328 464 425 q 472 171 472 232 l 394 171 l 394 551 l 296 464 l 250 526 q 489 867 411 657 l 275 867 l 275 943 l 653 943 l 653 1050 l 746 1050 l 733 1033 l 733 946 l 1114 946 l 1114 865 l 731 865 q 789 835 769 851 l 746 757 l 958 754 l 986 774 q 1060 728 1011 761 q 981 554 1040 696 q 885 388 935 446 q 1146 257 969 311 m 1003 -75 q 996 -77 1001 -75 q 986 -79 990 -79 q 957 -62 974 -79 l 957 40 q 936 54 949 43 q 953 64 942 64 q 958 89 957 67 q 975 107 960 106 l 975 67 q 999 63 983 63 l 999 44 l 975 44 l 975 -44 q 1003 -75 989 -53 m 917 -75 l 893 -75 q 894 -15 894 -82 q 863 47 894 47 q 825 -3 831 47 q 825 -75 825 -39 l 806 -75 l 806 114 l 828 114 q 825 79 825 97 q 828 47 825 63 q 869 64 843 64 q 917 22 917 64 l 917 -75 m 618 88 l 600 88 l 600 114 l 618 114 l 618 88 m 765 -94 q 744 -119 765 -108 q 706 -131 722 -131 q 651 -87 667 -131 q 683 -106 667 -96 q 718 -111 694 -111 q 746 -81 731 -111 l 743 -60 q 704 -75 719 -75 q 663 -53 679 -75 q 647 -4 647 -31 q 713 64 647 64 q 744 47 736 64 q 746 63 747 50 l 765 63 l 765 -94 m 618 -75 l 600 -75 l 600 63 l 618 63 l 618 -75 m 557 -75 l 532 -75 l 438 68 l 438 -75 l 413 -75 l 413 114 l 435 114 l 535 -32 l 535 114 l 557 114 l 557 -75 m 944 690 l 724 690 q 690 621 690 626 q 744 524 690 593 q 824 436 792 464 q 944 690 897 526 m 746 -6 q 708 47 746 47 q 671 -4 671 47 q 708 -56 671 -56 q 746 -6 746 -56 m 872 589 q 828 539 857 569 q 742 617 799 565 q 788 667 763 643 q 872 589 836 631 z "},"~":{"ha":694,"x_min":113,"x_max":578,"o":"m 160 279 q 136 276 147 274 q 119 287 125 279 q 113 306 113 294 q 122 328 113 317 q 188 372 160 358 q 238 388 215 386 q 282 381 261 389 q 326 361 303 374 q 376 335 349 349 q 442 313 404 322 q 476 306 460 308 q 501 305 492 303 q 513 317 511 307 q 504 346 514 326 q 506 373 500 361 q 521 389 511 385 q 542 389 531 393 q 561 371 554 385 q 578 313 579 338 q 562 272 576 288 q 520 249 547 256 q 458 246 493 242 q 401 260 429 249 q 346 285 374 271 q 302 309 325 296 q 254 325 279 322 q 203 313 224 328 q 160 279 183 297 z "}}}
